<?xml version="1.0" encoding="utf-8"?>
<!-- Generator: Adobe Illustrator 21.1.0, SVG Export Plug-In . SVG Version: 6.00 Build 0)  -->
<svg version="1.1" id="Layer_1" xmlns="http://www.w3.org/2000/svg" xmlns:xlink="http://www.w3.org/1999/xlink" x="0px" y="0px"
	 viewBox="0 0 456 625" style="enable-background:new 0 0 456 625;" xml:space="preserve">
<style type="text/css">
	.st0{fill:#90749E;}
	.st1{fill:#F7F8F8;}
	.st2{fill:#EDEEF0;}
	.st3{fill:#272423;}
	.st4{fill:#2E2B2A;}
	.st5{fill:#575255;}
	.st6{fill:none;}
	.st7{fill:#EFD6D2;}
	.st8{fill:#95D4EF;}
	.st9{fill:#1E120D;}
	.st10{fill:#2B2927;}
	.st11{fill:#FBCC26;}
	.st12{fill:#070705;}
	.st13{fill:#FFFFFF;}
	.st14{fill:#FCEFF6;}
	.st15{fill:#474345;}
	.st16{fill:#C3C5CA;}
</style>
<g>
	<g>
		<path class="st0" d="M288,305.3c-13.8,12.8-55.6,34.9-114.4,33c-40.6-1.4-64.9-7.5-73.7-11.9c-1.7-0.8-2.8-1.6-3.4-2.2
			c-3.4-3.9,0.6-14.6,0.6-14.6l0.1-0.3c9.3,3.2,19.5,5.9,30.5,7.7c14.1,2.5,29.6,3.7,46.6,3.2c15.1-0.4,28.9-2.1,41.8-4.8
			c28.9-6.2,52.3-17.5,71-30.4c1,1.7,7,11.9,5.5,15C291.6,301.4,290.1,303.3,288,305.3z"/>
		<path class="st1" d="M317.8,494.2c0.4,8,2.1,30.5,8.3,31.8c7.6,1.7,16-26.2,16-26.2s1.7,22,9.3,23.7c7.6,1.7,16.9-11.8,16.9-11.8
			s42.1,38.8,42.2,64.2c-8.3,22.2-17,24.5-26.2,31.2c-11.9,8.7-71,12.7-75.8,4.3c-0.3-0.5-0.4-1.1-0.2-1.7
			c3.4-13.5,17.7-23.6,17.7-23.6s-13.4-26-10.2-73.7c0.2-3.5,0.5-7,1-10.7C317.1,499,317.4,496.6,317.8,494.2z"/>
		<path class="st1" d="M326.1,586c0,0-14.4,10.1-17.7,23.6c-0.2,0.6-0.1,1.2,0.2,1.7c-8.4,2.5-15.7-0.3-15.7-0.3
			c2.3-10.7,11.6-51.6,15.6-103.9l0.2,0c0,0,4.5-2.3,6.8,5.1l0.5,0C312.8,560.1,326.1,586,326.1,586z"/>
		<path class="st2" d="M113.1,374.5c-4.7,36-2.4,92.9,41.5,155.8c-2.6,28.7-10.5,69.8-14.3,80.3c-2,5.6-61.3,8.5-64.7-3.1
			c-3.4-11.4,10.6-23.7,10.6-23.7c-3.7-36.8-4.5-72.1-3.6-104.2l0.8,0c0,0,5.8-37.5,8-52.4c2.5-16.9,6.8-23.2,6.8-23.2
			s-1.5-13.2,3-17.7c4.5-4.5,6.3,0.4,6.3,0.4s1.1-12.4,4.8-12.4L113.1,374.5z"/>
		<path class="st1" d="M221.8,601.1l-1.2-0.7c-28.6-23.7-50-47.3-65.9-70.2c-43.9-62.9-46.2-119.7-41.5-155.8c0.3-2.4,0.7-4.8,1-7
			l0.8,0.1c0,0,9,3.4,16.9,13.5c0,0,6.8-27,12.4-27c5.6,0,9,27,9,27s11.3-22.5,18-19.1c6.8,3.4,5.6,19.1,5.6,19.1s10.7-7.7,18.6-2.3
			c9,6.2,10.7,23.1,10.7,23.1s32.1-2.3,41.1,11.3c5.6,8.3-0.6,11.8-0.6,11.8s39.9,24.1,38.9,37.7c-0.6,7.3-9.6,6.2-9.6,6.2
			s32.5,19,32.7,35.9c-0.1,0.8-0.1,1.6-0.2,2.4c-4,52.3-13.3,93.2-15.6,103.9c-3.4,15.8-74.9,14.6-75.5,4.5
			C217.2,611,219.4,605.6,221.8,601.1z"/>
		<path class="st1" d="M277.7,204.8c16.3,13,32.7,17.5,16.3,50.1c-15.9,31.8-44,49.7-78.2,60.5c-12.8,2.7-26.7,4.4-41.8,4.8
			c-17,0.4-32.5-0.8-46.6-3.2c-70.5-22-89.3-72.5-67.7-93.1c22-20.8,15.8-61.9,51.8-71.5c36-9.6,56.9,57.4,56.9,57.4
			s19.7-62.5,47.3-64.7C243.4,142.9,261.4,191.9,277.7,204.8z"/>
		<path class="st3" d="M441.9,401.2c0.9,1.6,9,17,5.9,32c-3.3,15.3-12.2-1.6-12.7-2.5c0.4,1.2,8.6,24.5,4.2,35.4
			c-4.5,11.3-11.8-1.7-11.8-1.7s5.8,31.3-8.8,34.5c-8.3-33.2-31.8-53.9-31.8-53.9c-0.4-0.8-1.4-2.1-2.7-4.1
			c8.2-7.7,33.9-35.7,22.9-73.9c-13.9-48.3-60.2-40-62.5-46.7c-2.3-6.8,58-23.1,94.6,18c29.6,33.2,8.4,32.4,8.4,32.4
			s11.8,22.8,8.4,34.6C452.7,417.5,442.8,402.7,441.9,401.2z"/>
		<path class="st4" d="M418.7,498.9c3.1,12.3,4.1,26.2,1.2,41.5c-3,15.6-6.1,27-9.3,35.5c-0.1-25.4-42.2-64.2-42.2-64.2
			s-9.3,13.5-16.9,11.8c-7.6-1.7-9.3-23.7-9.3-23.7s-8.4,27.9-16,26.2c-6.3-1.4-7.9-23.8-8.3-31.8c-0.3,2.3-0.7,4.8-1,7.3
			c-0.4,3.7-0.7,7.3-1,10.7l-0.5,0c-2.3-7.3-6.8-5.1-6.8-5.1l-0.2,0c0.1-0.8,0.1-1.6,0.2-2.4c-0.2-16.8-32.7-35.9-32.7-35.9
			s9,1.1,9.6-6.2c1-13.7-38.9-37.7-38.9-37.7s6.1-3.5,0.6-11.8c-9-13.5-41.1-11.3-41.1-11.3s-1.7-16.9-10.7-23.1
			c-7.9-5.4-18.6,2.3-18.6,2.3s1.1-15.8-5.6-19.1c-6.8-3.4-18,19.1-18,19.1s-3.4-27-9-27c-5.6,0-12.4,27-12.4,27
			c-7.9-10.1-16.9-13.5-16.9-13.5l-0.8-0.1c-0.4,2.2-0.7,4.6-1,7l-1-0.1c-3.7,0-4.8,12.4-4.8,12.4s-1.8-4.9-6.3-0.4
			c-4.5,4.5-3,17.7-3,17.7s-4.2,6.3-6.8,23.2c-2.2,14.8-8,52.4-8,52.4l-0.8,0c2.3-89.4,17.3-153.1,17.3-153.1l0,0
			c8.8,4.3,33.2,10.5,73.7,11.9c58.8,1.9,100.7-20.2,114.4-33c3.9,5.4,80.2,111.7,96.3,135.6c1.3,2,2.3,3.4,2.7,4.1
			C386.9,445,410.4,465.7,418.7,498.9z"/>
		<path class="st4" d="M286.9,285c-18.6,12.9-42.1,24.2-71,30.4c34.2-10.8,62.3-28.7,78.2-60.5c16.3-32.7,0-37.2-16.3-50.1
			c-16.3-13-34.4-61.9-61.9-59.7c-27.6,2.3-47.3,64.7-47.3,64.7s-20.8-67-56.9-57.4c-36,9.6-29.8,50.7-51.8,71.5
			c-21.6,20.5-2.8,71.1,67.7,93.1c-11-1.9-21.1-4.5-30.5-7.7C26.4,285.2,1,229.9,1,229.9c15.5-18.9,45.3-79.7,45.3-79.7
			c-13.2-43.9,4.8-136,10.1-141C61.8,4.1,71.1,20.5,84,37.9c13,17.5,32.9,47,32.9,47s45-20.8,90.4-1.1c0,0,13.8-23.7,23.1-42.5
			C243.9,14,248.1-2.1,252.4,1c28.1,20.6,31,134,31,134c14.6,25.3,65.3,79.4,65.3,79.4S331.4,254.2,286.9,285z"/>
	</g>
	<g>
		<path class="st5" d="M227.3,466.4c-0.3,5.2-0.2,10.4-0.3,15.6l0.1,15.6l0.4,31.2c0.3,20.8,0.7,41.7,1.1,62.5c0,0.1,0,0.2-0.1,0.3
			l0,0c-1.8,2.4-3.5,4.9-5.1,7.5c-1.5,2.6-2.9,5.3-4,8.2c-0.5,1.4-0.9,2.9-1.2,4.3c-0.1,0.7-0.2,1.5-0.3,2.2c0,0.4,0,0.7,0,1.1
			l0,0.6c0,0.2,0,0.3,0.1,0.5c0.2,0.6,0.7,1.1,1.2,1.5c0.6,0.4,1.2,0.8,1.9,1.1c1.3,0.6,2.8,1.1,4.2,1.5c5.9,1.5,12,2.1,18,2.4
			c6.1,0.3,12.2,0.2,18.2-0.2c6.1-0.5,12.1-1.2,18-2.8c2.9-0.8,5.8-1.8,8.4-3.3c1.3-0.8,2.5-1.7,3.3-2.8c0.5-0.6,0.8-1.2,1-1.9
			c0.2-0.6,0.3-1.5,0.5-2.2c2.6-11.9,5-23.9,7-35.9c4.1-24.1,7.1-48.3,8.7-72.6c1.6-24.3,1.9-48.8,0.4-73.1c0-0.1,0.1-0.3,0.2-0.3
			c0.1,0,0.3,0.1,0.3,0.2c1.6,24.4,1.4,48.9-0.1,73.2c-1.6,24.4-4.5,48.7-8.6,72.7c-2,12-4.4,24-7,36c-0.2,0.8-0.3,1.5-0.5,2.3
			c-0.3,0.8-0.6,1.5-1.1,2.2c-1,1.3-2.3,2.2-3.6,3c-2.7,1.6-5.6,2.6-8.6,3.4c-6,1.6-12.1,2.4-18.2,2.8c-6.1,0.4-12.2,0.5-18.4,0.2
			c-6.1-0.3-12.2-0.9-18.2-2.4c-1.5-0.4-3-0.9-4.4-1.5c-0.7-0.3-1.4-0.7-2.1-1.2c-0.6-0.5-1.3-1.1-1.5-2c-0.1-0.2-0.1-0.5-0.1-0.7
			l0-0.6c0-0.4,0-0.8,0-1.2c0.1-0.8,0.2-1.6,0.3-2.3c0.3-1.5,0.7-3,1.3-4.5c1.1-2.9,2.5-5.7,4-8.3c1.6-2.6,3.3-5.2,5.2-7.6l-0.1,0.3
			c-0.4-20.8-0.7-41.7-1-62.5c-0.1-10.4-0.2-20.8-0.3-31.3l0-15.6c0.1-5.2,0-10.4,0.4-15.6c0-0.1,0.1-0.3,0.3-0.2
			C227.2,466.1,227.3,466.2,227.3,466.4L227.3,466.4z"/>
	</g>
	<g>
		<path class="st5" d="M120.9,339.5c-3.4,11.9-6.1,24-7.5,36.3c-1.5,12.3-1.9,24.7-1.1,37c0.7,12.3,2.6,24.6,5.6,36.6
			c3,12,7,23.7,11.8,35.1l3.9,8.4l1,2.1c0.3,0.7,0.7,1.4,1.1,2.1l2.1,4.1c2.7,5.6,6,10.8,9.2,16.1c1.6,2.6,3.4,5.2,5.1,7.8
			c1.7,2.6,3.4,5.2,5.2,7.7c3.6,5,7.4,10,11.3,14.8c7.8,9.6,16.2,18.8,24.9,27.5c8.8,8.8,18,17.1,27.5,25c0.1,0.1,0.1,0.3,0,0.4
			c-0.1,0.1-0.3,0.1-0.4,0c-9.6-7.9-18.8-16.2-27.7-24.9c-8.8-8.7-17.2-17.9-25.1-27.5c-3.9-4.8-7.7-9.7-11.3-14.8
			c-1.8-2.5-3.5-5.1-5.2-7.7c-1.7-2.6-3.5-5.1-5.1-7.8c-3.1-5.4-6.5-10.6-9.2-16.2l-2.2-4.1c-0.4-0.7-0.7-1.4-1.1-2.1l-1-2.1
			l-3.9-8.5c-4.8-11.4-8.8-23.2-11.8-35.3c-2.9-12.1-4.8-24.4-5.5-36.8c-0.7-12.4-0.3-24.9,1.2-37.2c1.5-12.3,4.3-24.5,7.8-36.4l0,0
			c0-0.1,0.2-0.2,0.3-0.2C120.8,339.2,120.9,339.3,120.9,339.5z"/>
	</g>
	<g>
		<path class="st6" d="M287.8,305.1"/>
	</g>
	<g>
		<path class="st5" d="M351.5,441c-1.6,0.1-3.2,0.5-4.8,1.1l-1.2,0.4c-0.4,0.2-0.7,0.4-1.1,0.5c-0.7,0.4-1.5,0.7-2.2,1.2
			c-0.7,0.5-1.4,0.9-2.1,1.4l-1.9,1.6c-0.7,0.5-1.2,1.2-1.8,1.7c-0.6,0.6-1.2,1.1-1.7,1.8l-1.6,1.9c-0.5,0.6-1.1,1.3-1.5,2l-1.4,2.1
			c-0.4,0.7-0.9,1.4-1.3,2.1l-2.3,4.4l-1.9,4.6c-0.7,1.5-1.1,3.1-1.7,4.7l-0.8,2.4c-0.3,0.8-0.5,1.6-0.7,2.4l-1.2,4.9l-0.6,2.4
			l-0.4,2.5l-0.9,4.9c-0.1,0.8-0.3,1.6-0.4,2.5l-0.3,2.5c-0.2,1.7-0.4,3.3-0.6,5l-0.4,5l-0.4,5l-0.2,5c-0.2,3.3-0.2,6.7-0.2,10
			c0,1.7,0,3.3,0.1,5c0.1,1.7,0.1,3.3,0.2,5c0.3,3.3,0.4,6.7,0.8,10c0.7,6.6,1.8,13.2,3.3,19.7c0.4,1.6,0.8,3.2,1.3,4.8
			c0.5,1.6,0.9,3.2,1.4,4.8c1,3.2,2.2,6.3,3.6,9.3c0.1,0.2,0,0.4-0.1,0.6c-2.4,1.8-4.7,3.8-6.8,6c-2.1,2.2-4.1,4.5-5.8,7
			c-1.7,2.5-3.2,5.2-4.2,8l-0.7,2.2c-0.2,0.7-0.2,1.3,0.2,1.8c0.8,1.1,2.2,1.7,3.6,2.2c2.8,0.9,5.9,1.3,8.9,1.6
			c3,0.3,6.1,0.4,9.1,0.4c6.1,0.1,12.2-0.2,18.3-0.7c6.1-0.5,12.1-1.3,18.1-2.4c3-0.6,6-1.3,8.9-2.1c2.9-0.9,5.8-1.9,8.2-3.6
			c2.5-1.8,5.1-3.4,7.6-5.1c2.5-1.7,4.9-3.6,6.9-5.8c4.2-4.4,7.1-9.8,9.5-15.4c2.4-5.6,4.3-11.4,5.9-17.3c1.6-5.9,3-11.8,4.2-17.8
			c1.3-6,2.3-12,2.6-18.1c0.3-6.1,0.1-12.2-0.8-18.2c-0.4-3-1-6-1.7-9c-0.3-1.5-0.8-2.9-1.2-4.4l-0.6-2.2c-0.2-0.7-0.5-1.4-0.7-2.2
			c-1.9-5.8-4.4-11.4-7.3-16.8c-2.9-5.4-6.2-10.5-9.8-15.4c-3.7-4.9-7.7-9.5-12.1-13.7c0,0,0,0,0-0.1l0,0L384,441l0,0
			c-0.1-0.1,0-0.3,0.1-0.4c0.1-0.1,0.3,0,0.4,0.1l2.7,4.1l-0.1-0.1c4.5,4.2,8.5,8.9,12.2,13.8c3.7,4.9,7,10.1,9.9,15.5
			c2.9,5.4,5.5,11,7.4,16.8c0.2,0.7,0.5,1.4,0.7,2.2l0.6,2.2c0.4,1.5,0.9,2.9,1.2,4.4c0.7,3,1.3,6,1.8,9c0.9,6.1,1.2,12.2,0.9,18.4
			c-0.3,6.1-1.3,12.2-2.6,18.2c-1.2,6-2.6,12-4.2,17.9c-1.6,5.9-3.5,11.8-5.9,17.4c-2.4,5.6-5.4,11.1-9.7,15.7
			c-2.1,2.3-4.5,4.2-7.1,6c-2.5,1.8-5.1,3.4-7.6,5.1c-2.6,1.9-5.6,2.8-8.5,3.8c-3,0.9-6,1.6-9,2.2c-6,1.2-12.1,1.9-18.2,2.5
			c-6.1,0.5-12.2,0.8-18.4,0.7c-3.1,0-6.1-0.2-9.2-0.5c-3.1-0.3-6.1-0.7-9.1-1.7c-0.7-0.2-1.5-0.5-2.2-0.9c-0.7-0.4-1.4-0.9-1.9-1.6
			c-0.3-0.4-0.4-0.8-0.5-1.3c-0.1-0.4,0-1,0.1-1.3l0.7-2.2c1.1-2.9,2.6-5.7,4.3-8.2c1.8-2.5,3.8-4.9,5.9-7.1c2.2-2.2,4.5-4.2,7-6.1
			l-0.1,0.6c-1.5-3.1-2.6-6.2-3.6-9.4c-0.5-1.6-1-3.2-1.4-4.8c-0.4-1.6-0.8-3.3-1.2-4.9c-1.5-6.5-2.6-13.2-3.3-19.8
			c-0.4-3.3-0.6-6.7-0.8-10c-0.1-1.7-0.1-3.4-0.2-5c-0.1-1.7-0.1-3.4-0.1-5c0-3.4,0-6.7,0.2-10.1l0.2-5l0.5-5l0.5-5
			c0.2-1.7,0.4-3.3,0.6-5l0.3-2.5c0.1-0.8,0.3-1.7,0.4-2.5l0.9-4.9l0.5-2.5l0.6-2.4l1.2-4.9c0.2-0.8,0.5-1.6,0.7-2.4l0.8-2.4
			c0.5-1.6,1-3.2,1.7-4.7l2-4.6l2.3-4.5c0.4-0.8,0.9-1.4,1.3-2.2l1.4-2.1c0.4-0.7,1-1.4,1.5-2l1.6-2c0.5-0.7,1.2-1.2,1.7-1.8
			c0.6-0.6,1.2-1.2,1.8-1.7l2-1.6c0.7-0.5,1.4-0.9,2.1-1.4c0.7-0.5,1.5-0.9,2.2-1.2c0.4-0.2,0.7-0.4,1.1-0.6l1.2-0.5
			c1.6-0.6,3.2-1,5-1.1c0.1,0,0.3,0.1,0.3,0.2C351.7,440.9,351.6,441,351.5,441L351.5,441z"/>
	</g>
	<g>
		<path class="st5" d="M293,610.8c1.3,0.3,2.6,0.6,3.9,0.8c1.3,0.2,2.6,0.3,4,0.3c1.3,0,2.6,0,4-0.2c1.3-0.1,2.6-0.4,3.9-0.6
			c0.1,0,0.3,0.1,0.3,0.2c0,0.1-0.1,0.3-0.2,0.3c-0.6,0.2-1.3,0.4-1.9,0.6c-0.7,0.1-1.3,0.3-2,0.4c-1.4,0.2-2.7,0.3-4.1,0.3
			c-1.4,0-2.7-0.2-4.1-0.4c-1.3-0.3-2.7-0.6-3.9-1.2c-0.1-0.1-0.2-0.2-0.1-0.3C292.7,610.8,292.9,610.8,293,610.8L293,610.8z"/>
	</g>
	<path class="st7" d="M57.8,39.9c-5.9,0.3-10.4,86.7-3.1,103.3c0,0,31.2-36.3,47.6-42.5C102.3,100.7,62.5,39.7,57.8,39.9z"/>
	<path class="st7" d="M256.2,22c5.9-0.6,18.5,78.7,13.6,96.2c0,0-31.9-25.8-49-29.6C220.9,88.5,251.6,22.4,256.2,22z"/>
	<g>
		<circle class="st8" cx="116.7" cy="217.8" r="10.7"/>
		<circle class="st4" cx="116.7" cy="217.8" r="8.4"/>
	</g>
	<g>
		<circle class="st8" cx="224.1" cy="217.8" r="10.7"/>
		<circle class="st4" cx="224.1" cy="217.8" r="8.4"/>
	</g>
	<path class="st9" d="M160.2,163.7C160.2,163.7,160.1,163.7,160.2,163.7c0.4,0.6,0.8,1.1,1.2,1.8c0,0.1,0.1,0,0.1-0.1
		C161.1,164.8,160.7,164.2,160.2,163.7z"/>
	<path class="st1" d="M166.5,102.7c-3.8,0.7-14.1,15.8-12.7,42.2c1.4,26.5,13.8,43,14.9,43.1c1.1,0.1,7.8-17.4,8.7-43.1
		C178.3,121.8,170.3,102,166.5,102.7z"/>
	<g>
		<path class="st10" d="M171.5,244.3c0.4,3.3,0.5,6.7,0.5,10c0,3.3-0.1,6.7-0.5,10c0,0.3-0.3,0.5-0.6,0.5c-0.3,0-0.4-0.2-0.5-0.5
			c-0.4-3.3-0.5-6.7-0.5-10c0-3.3,0.1-6.7,0.5-10c0-0.3,0.3-0.5,0.6-0.5C171.3,243.8,171.5,244,171.5,244.3z"/>
	</g>
	<g>
		<path class="st10" d="M116.3,250.1c2.2,0.9,4.3,1.7,6.5,2.5c2.2,0.8,4.4,1.5,6.6,2.2c4.4,1.4,9,2.5,13.5,3.4
			c4.6,0.9,9.1,1.6,13.8,1.9c4.6,0.4,9.2,0.6,13.9,0.4c4.6-0.1,9.2-0.5,13.8-1.1c4.6-0.6,9.1-1.5,13.7-2.6c4.5-1.1,9-2.4,13.3-4
			c2.2-0.8,4.4-1.6,6.5-2.5c2.1-0.9,4.3-1.9,6.4-2.9c0.5-0.2,1.2,0,1.4,0.5c0.2,0.5,0,1.1-0.4,1.4c-4.1,2.4-8.4,4.4-12.8,6.3
			c-4.4,1.8-8.9,3.3-13.5,4.6c-4.6,1.3-9.3,2.3-14,3c-4.7,0.7-9.5,1.1-14.3,1.2c-9.6,0.2-19.2-0.7-28.5-2.8
			c-9.3-2.1-18.4-5.3-26.8-9.7c-0.5-0.3-0.7-0.9-0.5-1.4C115.2,250.1,115.8,249.8,116.3,250.1L116.3,250.1z"/>
	</g>
	<g>
		<path class="st10" d="M79.8,612.2c-0.1-1.3,0-2.5,0.2-3.8c0.2-1.2,0.5-2.5,0.9-3.7c0.4-1.2,0.9-2.4,1.6-3.5
			c0.7-1.1,1.5-2.1,2.5-2.9c0.2-0.2,0.6-0.1,0.7,0.1c0.1,0.2,0.1,0.4,0,0.6l0,0c-1.3,1.9-2.2,4.1-3,6.3c-0.4,1.1-0.7,2.3-1,3.4
			l-0.9,3.5l0,0c-0.1,0.3-0.4,0.5-0.7,0.4C80,612.6,79.8,612.4,79.8,612.2z"/>
	</g>
	<g>
		<path class="st10" d="M92.5,613.9c-0.3-1.2-0.4-2.5-0.5-3.7c-0.1-1.2-0.1-2.5,0-3.7c0.1-1.2,0.3-2.5,0.6-3.7
			c0.3-1.2,0.8-2.5,1.6-3.5c0.2-0.2,0.5-0.3,0.7-0.1c0.2,0.1,0.2,0.4,0.2,0.6l0,0c-0.4,1.1-0.6,2.2-0.8,3.3
			c-0.2,1.2-0.3,2.3-0.4,3.5c-0.2,2.4-0.2,4.8-0.5,7.2l0,0c0,0.3-0.3,0.5-0.6,0.5C92.7,614.3,92.5,614.1,92.5,613.9z"/>
	</g>
	<g>
		<path class="st10" d="M225.1,620.6c-0.1-3,0.5-5.9,1.4-8.7c0.5-1.4,1.1-2.8,1.8-4.1c0.8-1.3,1.7-2.5,2.8-3.5
			c0.2-0.2,0.5-0.2,0.7,0c0.2,0.2,0.2,0.4,0.1,0.6l0,0c-0.8,1.2-1.4,2.4-2,3.7c-0.6,1.3-1.1,2.6-1.5,3.9c-0.4,1.3-0.8,2.7-1.2,4
			c-0.4,1.4-0.7,2.8-1.1,4.1l0,0c-0.1,0.3-0.4,0.5-0.6,0.4C225.3,621,225.1,620.8,225.1,620.6z"/>
	</g>
	<g>
		<path class="st10" d="M237.8,620.6c-0.2-1.3-0.1-2.5,0-3.7c0.1-1.2,0.4-2.4,0.7-3.6c0.4-1.2,0.8-2.3,1.4-3.4
			c0.6-1.1,1.3-2.1,2.2-3c0.2-0.2,0.5-0.2,0.8,0c0.2,0.2,0.2,0.4,0.1,0.6l0,0c-0.5,1.1-1,2.1-1.4,3.2c-0.4,1.1-0.8,2.1-1.1,3.3
			c-0.7,2.2-1.1,4.5-1.6,6.8l0,0c-0.1,0.3-0.3,0.5-0.6,0.4C238,621,237.8,620.9,237.8,620.6z"/>
	</g>
	<g>
		<path class="st10" d="M320.5,614.7c-0.1-1.4,0-2.7,0.3-4c0.2-1.3,0.6-2.7,1.1-3.9c0.5-1.3,1.2-2.5,2.1-3.6c0.9-1.1,2.1-2,3.5-2.4
			c0.3-0.1,0.6,0.1,0.7,0.4c0.1,0.2,0,0.5-0.2,0.6l0,0c-2,1.3-3.3,3.5-4.2,5.8c-0.5,1.1-0.9,2.4-1.2,3.6c-0.3,1.2-0.7,2.5-1,3.7l0,0
			c-0.1,0.3-0.4,0.5-0.6,0.4C320.7,615.1,320.5,614.9,320.5,614.7z"/>
	</g>
	<g>
		<path class="st10" d="M334.9,615.6c-0.2-1.4-0.2-2.8-0.1-4.2c0.1-1.4,0.3-2.8,0.7-4.2c0.4-1.4,0.8-2.8,1.6-4
			c0.7-1.3,1.7-2.5,3.1-3.2c0.3-0.1,0.6,0,0.7,0.2c0.1,0.2,0.1,0.5-0.1,0.6l0,0c-0.9,0.9-1.6,2-2.1,3.1c-0.5,1.2-0.9,2.4-1.2,3.7
			c-0.3,1.3-0.6,2.6-0.8,3.9l-0.7,4l0,0c0,0.3-0.3,0.5-0.6,0.4C335.1,616,334.9,615.8,334.9,615.6z"/>
	</g>
	<path class="st11" d="M187.6,356.1c-1-7.7-8.1-13.1-15.8-12c-7.7,1.1-13.1,8.1-12,15.8c1,7.7,8.1,13.1,15.8,12
		C183.3,370.9,188.7,363.8,187.6,356.1z M173.1,350.4c-1,0.1-1.9-0.7-2-1.8c-0.1-1,0.7-1.9,1.8-2c1-0.1,1.9,0.7,2,1.8
		C174.9,349.4,174.1,350.3,173.1,350.4z"/>
	<g>
		<path class="st12" d="M149.6,223.4c-4.7,3-2.5,17.2,5.1,21.1c7.6,3.9,25.6,4.6,32.1-1.6c8.4-8,5.9-19.5,2.5-21.1
			C184.5,219.6,159.2,217.2,149.6,223.4z"/>
		<path class="st13" d="M174.6,223.3c-2.7-0.9-5.6-0.4-8.4-0.1c-1.6,0.2-3.1,0.6-4.6,0.8c-0.4,0.1-0.9,0.1-1.3,0.3
			c-0.2,0.1-0.3,0.2-0.4,0.2c0,0,0-0.1-0.1-0.1c-0.9-0.3-1.5,1.1-0.6,1.5c0.7,0.3,0.2-0.3,0.6,0.3c0.2,0.3,0.5,0.6,0.8,0.7
			c1.2,0.3,2.5,0.3,3.7,0.3c3.3,0,6.4-0.3,9.7,0C176.4,227.5,176.7,224,174.6,223.3z"/>
		<path class="st13" d="M154.9,225c-2.7,0-2.7,4.2,0,4.2C157.6,229.1,157.6,225,154.9,225z"/>
	</g>
	<g>
		<path class="st5" d="M100,326.5c-4.6,21-7.8,42.4-10.4,63.7c-2.6,21.4-4.5,42.9-5.6,64.4l-0.4,8.1l-0.3,8.1l-0.3,8.1l-0.2,8.1
			c-0.2,10.8-0.2,21.5,0,32.3c0.4,21.5,1.6,43.1,3.8,64.5c0,0.2,0,0.3-0.1,0.4l0,0c-2.7,2.5-5.1,5.3-7.1,8.3
			c-1.9,3.1-3.5,6.5-3.8,10.1c-0.1,0.9,0,1.8,0,2.7c0.1,0.9,0.3,1.8,0.6,2.6c0.7,1.5,2.3,2.5,3.9,3.3c3.3,1.5,6.9,2.2,10.6,2.8
			c7.3,1.1,14.7,1.3,22,1.1c3.7-0.1,7.4-0.3,11-0.6c3.7-0.4,7.3-0.8,10.9-1.6c0.9-0.2,1.8-0.4,2.6-0.7c0.8-0.3,1.7-0.6,2.3-1.2
			c0.1-0.1,0.2-0.3,0.3-0.4l0.2-0.6l0.4-1.3c0.3-0.9,0.5-1.8,0.8-2.7c1-3.6,1.8-7.1,2.6-10.8c1.6-7.2,3-14.5,4.3-21.7
			c2.6-14.5,4.8-29.2,6.2-43.9l0,0c0-0.1,0.1-0.3,0.3-0.2c0.1,0,0.3,0.1,0.2,0.3c-1.3,14.7-3.5,29.4-6,44
			c-1.3,7.3-2.7,14.6-4.2,21.8c-0.8,3.6-1.6,7.2-2.6,10.8c-0.3,0.9-0.5,1.8-0.8,2.7l-0.4,1.3c-0.1,0.2-0.1,0.4-0.2,0.7
			c-0.1,0.3-0.3,0.5-0.5,0.7c-0.8,0.7-1.7,1-2.6,1.3c-0.9,0.3-1.8,0.6-2.7,0.8c-3.6,0.8-7.3,1.3-11,1.7c-3.7,0.3-7.4,0.5-11.1,0.6
			c-7.4,0.2-14.8-0.1-22.2-1.1c-3.7-0.6-7.4-1.3-10.8-2.8c-0.9-0.4-1.7-0.9-2.5-1.5c-0.8-0.6-1.5-1.3-1.9-2.3
			c-0.7-1.9-0.9-3.8-0.7-5.7c0.3-3.8,2-7.3,3.9-10.5c2-3.1,4.5-6,7.2-8.5l-0.2,0.4c-2.1-21.5-3.4-43-3.8-64.6
			c-0.2-10.8-0.2-21.6,0-32.3l0.2-8.1l0.3-8.1l0.3-8.1l0.4-8.1c1.2-21.5,3.1-43,5.7-64.4c2.7-21.4,6-42.7,10.7-63.8
			c0-0.1,0.2-0.2,0.3-0.2C100,326.2,100.1,326.4,100,326.5L100,326.5z"/>
	</g>
	<g>
		<path class="st14" d="M173,320.4c-0.2,1.5-0.4,3.1-0.6,4.6c-0.2,1.5-0.3,3.1-0.4,4.6c-0.1,1.5-0.1,3,0.1,4.5
			c0.1,1.4,0.6,2.9,1.4,3.5l0.1,0c0.3,0.2,0.4,0.5,0.4,0.8c0,1.5-0.1,3-0.2,4.5c-0.1,1.5-0.2,3-0.3,4.5c0,0.3-0.3,0.5-0.6,0.5
			c-0.3,0-0.5-0.2-0.5-0.5c-0.1-1.5-0.2-3-0.3-4.5c0-1.5-0.1-3-0.1-4.5l0.4,0.8c-0.9-0.6-1.4-1.5-1.8-2.3c-0.3-0.8-0.5-1.7-0.6-2.5
			c-0.2-1.6-0.2-3.3,0-4.8c0.1-1.6,0.4-3.1,0.7-4.7c0.3-1.6,0.7-3.1,1.1-4.6c0.1-0.3,0.4-0.4,0.7-0.4
			C172.9,319.9,173.1,320.1,173,320.4L173,320.4z"/>
	</g>
	<path class="st15" d="M246.6,367.9c-1.3-2.9-3.5-5.5-5.3-8.2c-1.7-2.5-5.8-0.2-4.1,2.4c1.9,2.8,3.5,6,5.9,8.5
		C244.9,372.6,247.6,370.1,246.6,367.9z"/>
	<path class="st15" d="M267.1,391.1c-1.3-4-4.6-7-7.6-9.9c-1.8-1.8-4.6,1-2.8,2.8c2.6,2.7,4.8,5.5,7,8.5
		C264.9,394.1,267.9,393.2,267.1,391.1z"/>
	<path class="st15" d="M266.8,372.9c-1.4-3.5-3.6-6.5-5.3-9.8c-1.7-3.3-6.6-0.4-5,2.9c1.7,3.3,3.5,6.6,6.2,9.3
		C264.3,376.8,267.7,375.3,266.8,372.9z"/>
	<path class="st15" d="M275.6,352.5c-1.6-3-4.3-5.3-6.3-8.1c-1.9-2.7-6.4-0.2-4.5,2.6c2,3,4.4,5.9,6.7,8.6
		C273.6,357.8,276.9,354.9,275.6,352.5z"/>
	<path class="st15" d="M287.2,379.6c-0.8-1.5-1.8-2.9-3.1-4.1c-2.1-2.1-5.4,1.2-3.3,3.3c1,1,1.6,1.8,2.3,3.1
		c0.6,1.1,2.1,1.4,3.2,0.8C287.4,382.1,287.7,380.7,287.2,379.6z"/>
	<path class="st15" d="M287.6,345.9c-1.6-2.1-2.5-4.6-4.3-6.5c-2.1-2.3-5.6,1.2-3.4,3.4c1.8,1.8,2.7,4.4,4.7,6.1
		C286.7,350.7,289.2,348.1,287.6,345.9z"/>
	<path class="st15" d="M318.2,388.2c-1-3.4-3.1-6.1-5.1-9.1c-2.3-3.5-7.9-0.2-5.6,3.3c1.9,2.9,3.7,6,6.4,8.3
		C315.8,392.2,319,390.8,318.2,388.2z"/>
	<path class="st15" d="M299.6,361.6c-3.7,0-3.7,5.8,0,5.8C303.3,367.4,303.3,361.6,299.6,361.6z"/>
	<path class="st15" d="M296.2,411.1c-1.9-3.5-4.6-6.8-7.6-9.5c-2.2-2-5.1,1-3.2,3.2c2.6,3.2,3.9,7.2,7.7,9.4
		C295,415.5,297.3,413.1,296.2,411.1z"/>
	<path class="st15" d="M331.5,433.3c-1.2-3.6-2.6-7.3-4.7-10.5c-1.7-2.5-5.7-0.2-4.1,2.4c1.9,3.1,2.6,6.8,4.6,9.9
		C328.7,437.1,332.4,435.8,331.5,433.3z"/>
	<path class="st15" d="M339.4,413.5c-0.9-3-3-5.3-4-8.2c-1.1-3.1-6-1.8-4.9,1.4c1.1,3.2,2.9,6.7,5.5,8.9
		C337.4,416.8,340,415.7,339.4,413.5z"/>
	<path class="st15" d="M345.9,457.2c-6.7,2.8-11.1,9.2-11.8,16.4c-0.3,2.8,4.3,3.3,4.9,0.7c1.3-5.7,3.6-10.1,8.5-13.3
		C349.2,459.7,348.1,456.2,345.9,457.2z"/>
	<path class="st15" d="M352.5,473.2c-2,3-3.7,7.2-2.6,10.7c0.6,2,3.2,1.8,3.9,0c1-2.8,1.2-5.7,2.8-8.4
		C358.1,473,354.1,470.8,352.5,473.2z"/>
	<path class="st15" d="M369.3,488.5c-1.6-2.5-1.4-5.3-0.8-8c0.6-2.9-3.7-4.1-4.5-1.2c-1,4-1.2,8.1,1,11.8
		C366.6,493.7,371,491.2,369.3,488.5z"/>
	<path class="st15" d="M362.1,453.2c-1.2-0.7-3-0.3-3.6,0.9c-0.6,1.2-1.2,2.3-1.5,3.6c-0.4,1.9,0.1,3.5,0.8,5.2
		c0.4,0.9,1.7,1.3,2.6,1.1c1.3-0.4,1.8-1.6,1.6-2.9c-0.2-1.5,0.3-3,0.9-4.3C363.7,455.6,363.5,454,362.1,453.2z"/>
	<path class="st15" d="M377.1,459.3c-0.8-0.5-2.1-0.3-2.5,0.7c-1,2.2-1.6,5.3-0.7,7.6c0.5,1.4,2.2,1.4,2.8,0
		c0.7-1.8,0.3-3.9,1.1-5.7C378.1,460.9,378,459.9,377.1,459.3z"/>
	<path class="st15" d="M393.1,507.7c-2.5-4.5-4-9.1-3.3-14.3c0.3-2.6-3.7-2.6-4.1,0c-0.8,5.8,1,11.3,3.9,16.3
		C391,511.8,394.4,509.9,393.1,507.7z"/>
	<path class="st15" d="M403.9,494.1c-2.1-5-4.7-9.9-8.8-13.6c-1.4-1.3-3.3,0.6-2.1,2.1c3.2,3.8,5.5,8.3,7.3,13
		C401.4,498.3,405.1,496.8,403.9,494.1z"/>
	<path class="st15" d="M103.6,345.9c-0.7,2.4-1,4.8-1.1,7.3c-0.1,2.4-0.3,4.7,0.8,7c0.7,1.4,2.9,1.4,3.6,0c1-2,0.9-4,0.9-6.2
		c0-2.3,0.2-4.6,0.5-6.8C108.8,344.2,104.5,342.8,103.6,345.9z"/>
	<path class="st15" d="M130.7,347.4c0-2.9-4.5-2.9-4.5,0c0,1.9,0,3.9-0.1,5.8c-0.1,1.9-0.4,3.6-0.2,5.4c0.2,1.6,2.4,1.5,3.1,0.4
		C131.2,355.9,130.7,351.1,130.7,347.4z"/>
	<path class="st15" d="M225,376.6c-0.7-1.8-1.5-3.6-2.6-5.2c-1.7-2.6-5.9-0.2-4.2,2.5c1,1.7,1.7,3.5,2.4,5.3c0.7,1.9,1.3,4,3.1,5.1
		c1.5,0.9,2.9-0.3,3.1-1.8C227.1,380.6,225.7,378.4,225,376.6z"/>
	<path class="st15" d="M272.9,427.9c-0.9-2.7-2.2-5.2-4.2-7.3c-2-2-5.1,1.1-3.1,3.1c1.5,1.5,2.3,3.3,3,5.3
		C269.5,431.8,273.9,430.6,272.9,427.9z"/>
	<path class="st15" d="M59.5,174.1c-2.2,4.9-5.4,9.2-5.7,14.8c-0.1,1.4,1.9,2.2,2.8,1.2c3.7-4,5.8-8.9,7.7-14
		C65.4,173.3,60.8,171.4,59.5,174.1z"/>
	<path class="st15" d="M45.5,185.1c-1,2-1.7,4.2-2.8,6.3c-1.3,2.5,2.6,4.8,3.8,2.2c1-2.1,1.7-4.3,2.7-6.3
		C50.4,184.8,46.8,182.7,45.5,185.1z"/>
	<path class="st15" d="M44.1,215.8c-1-0.6-2.6-0.3-3.2,0.8c-1,2-2.1,3.9-2.6,6c-0.4,1.8,2,3.6,3.3,1.9c0.7-0.8,1.3-1.6,1.7-2.6
		c0.5-1,1-2.1,1.5-3.1C45.4,217.8,45.2,216.4,44.1,215.8z"/>
	<path class="st15" d="M29,219.5c-0.1,2.2-2.1,3.5-3.1,5.3c-1,1.7,1,3.7,2.7,2.7c2.7-1.7,4.7-4.8,4.8-8
		C33.4,216.8,29.1,216.8,29,219.5z"/>
	<g>
		<path class="st15" d="M311.8,234.2C311.6,234,311.6,234,311.8,234.2L311.8,234.2z"/>
		<path class="st15" d="M321.1,237.3c-0.6-2.2-2.3-4.2-4-5.7c-1.3-1.2-2.9-2-4.7-1.7c-1,0.2-1.8,1.3-1.8,2.3c0,1.2,0.8,1.9,1.8,2.3
			c-0.3-0.1-0.5-0.2-0.6-0.3c0,0,0.1,0,0.1,0.1c0.1,0.1,0.5,0.6,0.1,0.2c0.3,0.4,1,1.2,1.2,1.4c1,1.4,1.8,3,3,4.3
			C318.2,242.4,321.9,240,321.1,237.3z"/>
	</g>
	<path class="st15" d="M322.7,217c-1.3-0.9-3.3-0.2-4,1.1c-0.9,1.5-0.2,3.1,1.1,4c2.1,1.5,2.3,4.3,3.4,6.5c1.3,2.5,5.5,1.3,5.3-1.4
		C328.2,223.1,325.9,219.3,322.7,217z"/>
	<path class="st15" d="M304.3,198.6c-3.5-4.2-6.6-8.8-8.6-13.9c-1.1-3.1-6.1-1.8-5,1.4c2,5.9,5.2,11.2,9,16.1
		C302.3,205.4,307,201.8,304.3,198.6z"/>
	<path class="st15" d="M320,198.2c-2.2-2.2-4.7-4.2-7-6.5c-2.3-2.3-5.8,1.3-3.5,3.5c2.3,2.3,4.8,5.1,7.9,6.4
		C319.5,202.6,321.9,200.1,320,198.2z"/>
	<path class="st15" d="M267.7,166c-0.2-1.5-1.5-2.8-2.3-4c-1.1-1.5-2.1-3-3.2-4.5c-1.2-1.6-3.8-0.2-2.7,1.6c1,1.5,1.9,3.1,2.9,4.6
		c0.9,1.4,1.6,3.1,3.1,4C266.7,168.5,267.9,167.2,267.7,166z"/>
	<path class="st15" d="M273.5,144.8c-1.4-1.7-3.1-3.3-4.2-5.2c-0.9-1.6-3.3-0.2-2.5,1.4c1.2,2.2,3,4,4.8,5.6
		C272.9,147.7,274.6,146.1,273.5,144.8z"/>
	<path class="st15" d="M242,116.1c-3-2.2-6.7-3.5-9.6-5.9c-1.7-1.4-3.9,0.8-2.4,2.4c2.8,3.1,6.7,5.7,10.6,6.9
		C242.7,120.3,243.6,117.3,242,116.1z"/>
	<path class="st15" d="M287.2,169.7c-1.9-3.6-5.5-5.9-8.7-8.4c-2.1-1.8-4.8,0.9-3,3c2.5,3.1,4.8,6.7,8.4,8.7
		C286.1,174.1,288.4,171.8,287.2,169.7z"/>
	<path class="st15" d="M81.5,151.2c-2.9,2-4.6,5-5.7,8.3c-0.9,2.8,3.4,3.9,4.4,1.2c0.9-2.4,2.6-4.6,4.1-6.8
		C85.3,152.3,83.2,150,81.5,151.2z"/>
	<path class="st15" d="M67.6,147c-1.7,1.7-2.8,3.7-3.9,5.8c-1.1,2.2,2.2,4.2,3.4,2c0.9-1.8,1.9-3.5,3.3-5
		C72.1,148,69.4,145.2,67.6,147z"/>
	<path class="st16" d="M64.7,249.7c-1.4,1.3-2.9,2.6-3.4,4.5c-0.4,1.7,1.7,3.1,3,1.7c1.1-1.1,2-2.4,3.1-3.5
		C69.1,250.6,66.4,248,64.7,249.7z"/>
	<path class="st16" d="M69,262c-1.4,2-3.3,5.5-1.1,7.6c0.7,0.6,1.6,0.6,2.2,0c0.9-0.7,1-1.5,1.3-2.5c0.3-1.1,0.6-2,1.2-2.9
		C74,261.8,70.5,259.9,69,262z"/>
	<path class="st16" d="M82.2,272.2c0.9-1.3-1.2-3-2.2-1.7c-1.9,2.4-3.5,5.6-2.3,8.6c0.6,1.5,3.1,1.5,3-0.4c0-1-0.2-2.1,0-3.2
		C80.9,274.3,81.6,273.2,82.2,272.2z"/>
	<path class="st16" d="M289,224.4c-0.8-1.5-2.1-2.1-3.5-2.9c-1.3-0.7-2.6-1.5-3.7-2.5c-2-1.7-4.8,0.9-2.9,2.9
		c1.2,1.3,2.5,2.3,3.9,3.3c1.5,1,3,2,4.8,1.8C288.8,226.8,289.7,225.6,289,224.4z"/>
	<path class="st16" d="M290.3,237.4c-0.2-0.5-0.3-1-0.7-1.4c-0.3-0.4-0.5-0.7-0.8-1c-0.5-0.6-1-1.1-1.4-1.7
		c-0.5-0.7-1.3-1.1-2.1-0.9c-0.9,0.3-1.7,1.4-1.3,2.3c0.8,2.2,2.4,5.3,5.2,4.6C290,239.2,290.6,238.2,290.3,237.4z"/>
	<path class="st16" d="M277.8,230.3c-0.4-0.7-0.9-1.2-1.5-1.7c-0.2-0.1-0.4-0.3-0.6-0.4c0.3,0.2-0.3-0.3-0.4-0.3
		c-2.2-1.9-5.1,1-3.2,3.2c1.1,1.2,2.2,2.2,4,2.2C277.5,233.2,278.7,231.5,277.8,230.3z"/>
	<path class="st16" d="M89.8,498.8c-1.1,2.5-2.8,5-1.3,7.7c0.6,1.2,2.4,1.1,3,0c1.2-2,0.8-4.2,1.3-6.5
		C93.2,498.4,90.6,497,89.8,498.8z"/>
	<path class="st16" d="M94.9,512.9c-0.4-1.8-3.3-1.8-3.7,0c-0.4,2.2-0.6,4.3-0.6,6.5c0,3.2,4.9,3.2,4.9,0
		C95.5,517.3,95.3,515.1,94.9,512.9z"/>
	<path class="st16" d="M97.2,505.2c-2.9,0-2.9,4.4,0,4.4S100.1,505.2,97.2,505.2z"/>
	<path class="st16" d="M93.1,537.9c-0.7-1.3-2.7-0.7-2.7,0.7c0,1.2,0,2.3,0.1,3.5c0.1,1.5-0.1,2.8,0.8,4.2c0.8,1.3,2.9,1.4,3.6,0
		C96.4,543.5,94.5,540.5,93.1,537.9z"/>
	<path class="st16" d="M243.9,583.3c-0.1-2-0.5-4.3-1.5-6c-0.7-1.3-3.2-1.2-3.5,0.5c-0.3,1.8-0.1,3.7-0.2,5.5c0,1,0,2,0.3,3
		c0.3,0.9,0.9,1.2,1.6,1.7c0.4,0.3,1.2,0.3,1.6,0C243.8,586.8,244,585.4,243.9,583.3z"/>
	<path class="st16" d="M252.6,583.4c-0.2-1.5-0.4-3-0.7-4.5c-0.7-2.8-5-1.6-4.3,1.2c0.6,2.7,0.2,6.1,2.6,7.9
		c0.6,0.5,1.7,0.1,2.1-0.5C253,586.1,252.8,584.9,252.6,583.4z"/>
	<path class="st16" d="M247,564.8c-0.2-1.6-0.4-3.1-1-4.5c-0.4-1-1.1-1.7-2.3-1.7c-1.2,0-2.4,1.1-2.3,2.3c0.1,1.3,0.2,2.6,0.2,3.9
		c0,1.6,0.2,2.9,1,4.4c0.6,1.4,3,1.4,3.6,0C246.9,567.7,247.2,566.4,247,564.8z"/>
	<path class="st16" d="M293.5,510.8c-0.6-0.4-1.3,0-1.4,0.6c-0.3,0.9-0.4,1.7-0.5,2.7c-0.1,1.2-0.2,2.6,0.1,3.9
		c0.6,2.4,4.8,2.7,5.2,0C297.1,515.1,295.8,512.4,293.5,510.8z"/>
	<path class="st16" d="M293,527.4c-0.3-1.2-0.2-2.4-0.7-3.5c-0.6-1.3-2.8-1.3-3.5,0c-0.5,1.2-0.4,2.3-0.7,3.5c-0.3,1.4,0,2.7,0.3,4
		c0.4,2.1,3.8,2.1,4.2,0C293,530.1,293.3,528.8,293,527.4z"/>
	<path class="st16" d="M294.2,535.3c-1.1,0-1.7,1-1.5,2c0.1,0.4,0.1,0.8,0.2,1.1c0.2,1.3,2.5,1.3,2.7,0c0.1-0.4,0.1-0.8,0.2-1.1
		C295.9,536.3,295.3,535.3,294.2,535.3z"/>
	<path class="st16" d="M328.2,565.3c-1-0.6-2.4,0.2-2.4,1.4c0.1,1.5,0.6,2.9,0.9,4.4c0.5,1.8,1.2,3.3,3,3.9c0.5,0.1,1.1,0,1.4-0.4
		C333.8,571.7,330.9,566.9,328.2,565.3z"/>
	<path class="st16" d="M338,577.8c-0.3-2-2.3-3.4-3.2-5.2c-0.2-0.3-0.7-0.3-0.8,0c-1.1,2.4-1.2,5.7,1.3,7.2
		C336.8,580.9,338.2,579.3,338,577.8z"/>
	<path class="st16" d="M338,559.8c-0.5-1-1.1-2.2-1.9-3.1c-1.1-1.1-2.7-0.2-2.8,1.2c-0.1,1,0.1,2.3,0.3,3.3c0.3,1.4,1,2.3,2,3.2
		c0.8,0.7,2.4,0.5,2.6-0.7C338.6,562.3,338.7,561.1,338,559.8z"/>
	<path class="st16" d="M138.8,413.2c-0.4-1.1-2-1.8-2.8-0.7c-1.7,2.1-2.6,5.2-1.9,7.9c0.4,1.5,2.7,2.3,3.8,1
		C139.7,419.1,139.8,415.9,138.8,413.2z"/>
	<path class="st16" d="M140.6,429.2c-0.8-1.3-3-0.8-3,0.8c0.1,2.7-0.9,5.5,1.2,7.7c0.5,0.6,1.6,0.6,2.1,0
		C143.1,435.4,142.2,431.6,140.6,429.2z"/>
	<path class="st16" d="M151.6,427.4c-0.4-0.6-0.8-1.2-1.1-1.8c-0.2-0.3-0.7-0.3-0.9,0c-0.9,1.7-1.8,3.9,0.3,5.1
		c0.8,0.5,2,0.1,2.2-0.9C152.2,428.8,152.1,428.2,151.6,427.4z"/>
	<path class="st16" d="M140.4,459.5c-0.7-1.9-0.8-4-1.6-5.9c-0.6-1.7-3.2-1.1-2.8,0.8c0.5,2,0.4,4.1,0.8,6.1
		C137.5,462.8,141.2,461.7,140.4,459.5z"/>
</g>
</svg>
