<?xml version="1.0" encoding="utf-8"?>
<!-- Generator: Adobe Illustrator 21.1.0, SVG Export Plug-In . SVG Version: 6.00 Build 0)  -->
<svg version="1.1" id="Layer_1" xmlns="http://www.w3.org/2000/svg" xmlns:xlink="http://www.w3.org/1999/xlink" x="0px" y="0px"
	 viewBox="0 0 150 150" style="enable-background:new 0 0 150 150;" xml:space="preserve">
<style type="text/css">
	.st0{fill:#454545;}
</style>
<path class="st0" d="M147,52.1c0-23.5-23.2-40.5-72-40.5S3,28.7,3,52.1C3,73.7,14.6,90,62.2,92.5c0,0.3-0.1,0.5-0.1,0.8
	c0,4.7,2.6,8.7,6.4,10.9c-1.7,1.6-2.7,3.9-2.7,6.4c0,0.7,0.1,1.4,0.3,2.1h-2.6c-0.8-4.5-4.7-7.9-9.5-7.9c-5.3,0-9.7,4.2-9.7,9.5
	c0,2.8,1.3,5.4,3.3,7.1c-2,1.7-3.3,4.3-3.3,7.1c0,5.2,4.3,9.5,9.7,9.5c4.7,0,8.5-3.2,9.5-7.6h23.3c0.9,4.3,4.8,7.6,9.5,7.6
	c5.3,0,9.7-4.2,9.7-9.5c0-2.8-1.3-5.4-3.3-7.1c2-1.7,3.3-4.3,3.3-7.1c0-5.2-4.3-9.5-9.7-9.5c-4.8,0-8.7,3.4-9.5,7.9h-2.9
	c0.2-0.7,0.3-1.4,0.3-2.1c0-2.5-1-4.7-2.7-6.4c3.8-2.2,6.4-6.3,6.4-10.9c0-0.3,0-0.5,0-0.8C135.8,90.2,147,73.8,147,52.1z M36.5,80
	c-3.6,0-6.5-2.9-6.5-6.4s2.9-6.4,6.5-6.4s6.5,2.9,6.5,6.4C43,77.2,40.1,80,36.5,80z M80.5,110.6c0,0.7-0.2,1.4-0.4,2.1H69.9
	c-0.3-0.6-0.4-1.3-0.4-2.1c0-2.2,1.3-4,3.2-4.9c0.7,0.1,1.5,0.2,2.3,0.2s1.6-0.1,2.3-0.2C79.2,106.5,80.5,108.4,80.5,110.6z
	 M82.7,93.3c0.3,1-3.5,3.7-7.7,3.7c-3.3,0-7.5-1.6-7.7-3.7c0-0.2,0-0.4,0-0.6c1.8,0,4.6,0.1,8,0.1C81.2,92.8,82.6,92.7,82.7,93.3z
	 M68.2,79.3c0-3.7,3.1-6.7,6.8-6.7c3.8,0,6.8,3,6.8,6.7S78.7,86,75,86C71.2,86,68.2,83,68.2,79.3z M112.4,81.4
	c-3.6,0-6.5-2.9-6.5-6.4s2.9-6.4,6.5-6.4s6.5,2.9,6.5,6.4C119,78.5,116,81.4,112.4,81.4z M74.3,62.7c-40.3,0-55.1-13.6-55.1-13.6
	s9.2-13.6,56-13.6s55.5,13.6,55.5,13.6S114.7,62.7,74.3,62.7z"/>
</svg>
