<?xml version="1.0" encoding="utf-8"?>
<!-- Generator: Adobe Illustrator 21.1.0, SVG Export Plug-In . SVG Version: 6.00 Build 0)  -->
<svg version="1.1" id="Layer_1" xmlns="http://www.w3.org/2000/svg" xmlns:xlink="http://www.w3.org/1999/xlink" x="0px" y="0px"
	 viewBox="0 0 150 150" style="enable-background:new 0 0 150 150;" xml:space="preserve">
<style type="text/css">
	.st0{fill-rule:evenodd;clip-rule:evenodd;fill:#454545;}
	.st1{fill:#454545;}
</style>
<g>
	<g>
		<g>
			<path class="st0" d="M-150.7,152.3c0-0.3,0.1-0.7,0.1-1c2.3-20.2,22.3-51.1,46.1-38.8c14.7,7.6,29.6,52.5,6.7,58.8
				c-6.3,1.7-12.2-2.7-18.3-1.9c-6.7,0.9-10,7.1-16.3,8.5C-149.1,181.6-151.8,164.8-150.7,152.3z"/>
			<path class="st0" d="M-161.8,105.5c-5.1-15.1,14.8-17.3,19.4-4c1.7,5,1.6,13.6-2.6,16.8C-152.2,124-159.7,111.7-161.8,105.5z"/>
			<path class="st0" d="M-87.4,96.2c12-8.8,19.6,8.3,9,16.2c-4,2.9-11.7,5.3-15.8,2.5C-101.2,110-92.3,99.9-87.4,96.2z"/>
			<path class="st0" d="M-143.3,87.9c-1.1-16.7,19.8-15,22.1-0.7c0.9,5.8-0.8,15.2-6,18C-135.6,109.7-142.6,98.1-143.3,87.9z"/>
			<path class="st0" d="M-114,83.8c4.6-16.1,23.7-7.5,21.1,6.8c-1.1,5.8-5.8,14-11.7,14.9C-114,106.9-116.8,93.6-114,83.8z"/>
		</g>
		<g>
			<path class="st0" d="M-69.6,155.6c25-14.1,36.8,8,37.5,21.5c0.9,16.5-15.2,17.8-21,10.3c-4.6-6-1.7-12-11-10.7
				c-4.4,0.7-11.3,0.2-13.5-4.9C-80.4,165.6-75,158.7-69.6,155.6z"/>
			<path class="st0" d="M-62.9,134.2c1.6-10.9,14.5-6,13.2,3.6c-0.5,3.6-3.3,8.9-6.9,9.6C-62.8,148.6-63.5,138.7-62.9,134.2z"/>
			<path class="st0" d="M-20.7,158.9c10.3-0.3,7.9,12.5-1.2,12.8c-3.4,0.1-8.7-1.6-9.9-4.8C-34,161.3-25,159-20.7,158.9z"/>
			<path class="st0" d="M-46.5,134.4c5.9-9.9,17.2-0.8,12.9,8.3c-1.7,3.7-6.4,8.3-10.5,7.9C-50.7,149.8-50.1,140.5-46.5,134.4z"/>
			<path class="st0" d="M-30.7,142.2c9.5-6.6,15.9,6.4,8.3,12.9c-3.1,2.6-9.3,4.9-12.8,2.8C-40.9,154.5-36.6,146.2-30.7,142.2z"/>
		</g>
	</g>
</g>
<path class="st1" d="M-5,33.1C-5,9.6-28.2-7.4-77-7.4c-48.8,0-72,17.1-72,40.5c0,21.6,11.6,37.9,59.2,40.4c0,0.3-0.1,0.5-0.1,0.8
	c0,4.7,2.6,8.7,6.4,10.9c-1.7,1.6-2.7,3.9-2.7,6.4c0,0.7,0.1,1.4,0.3,2.1h-2.6c-0.8-4.5-4.7-7.9-9.5-7.9c-5.3,0-9.7,4.2-9.7,9.5
	c0,2.8,1.3,5.4,3.3,7.1c-2,1.7-3.3,4.3-3.3,7.1c0,5.2,4.3,9.5,9.7,9.5c4.7,0,8.5-3.2,9.5-7.6h23.3c0.9,4.3,4.8,7.6,9.5,7.6
	c5.3,0,9.7-4.2,9.7-9.5c0-2.8-1.3-5.4-3.3-7.1c2-1.7,3.3-4.3,3.3-7.1c0-5.2-4.3-9.5-9.7-9.5c-4.8,0-8.7,3.4-9.5,7.9h-2.9
	c0.2-0.7,0.3-1.4,0.3-2.1c0-2.5-1-4.7-2.7-6.4c3.8-2.2,6.4-6.3,6.4-10.9c0-0.3,0-0.5,0-0.8C-16.2,71.2-5,54.8-5,33.1z M-115.5,61
	c-3.6,0-6.5-2.9-6.5-6.4c0-3.5,2.9-6.4,6.5-6.4c3.6,0,6.5,2.9,6.5,6.4C-109,58.2-111.9,61-115.5,61z M-71.5,91.6
	c0,0.7-0.2,1.4-0.4,2.1h-10.1c-0.3-0.6-0.4-1.3-0.4-2.1c0-2.2,1.3-4,3.2-4.9c0.7,0.1,1.5,0.2,2.3,0.2c0.8,0,1.6-0.1,2.3-0.2
	C-72.8,87.5-71.5,89.4-71.5,91.6z M-69.3,74.3c0.3,1-3.5,3.7-7.7,3.7c-3.3,0-7.5-1.6-7.7-3.7c0-0.2,0-0.4,0-0.6c1.8,0,4.6,0.1,8,0.1
	C-70.8,73.8-69.4,73.7-69.3,74.3z M-83.8,60.3c0-3.7,3.1-6.7,6.8-6.7c3.8,0,6.8,3,6.8,6.7c0,3.7-3.1,6.7-6.8,6.7
	C-80.8,67-83.8,64-83.8,60.3z M-39.6,62.4c-3.6,0-6.5-2.9-6.5-6.4c0-3.5,2.9-6.4,6.5-6.4c3.6,0,6.5,2.9,6.5,6.4
	C-33,59.5-36,62.4-39.6,62.4z M-77.7,43.7c-40.3,0-55.1-13.6-55.1-13.6s9.2-13.6,56-13.6c46.8,0,55.5,13.6,55.5,13.6
	S-37.3,43.7-77.7,43.7z"/>
<path class="st1" d="M146.9,134.7l-14.2-44.8c-0.5-1.6-2.1-2.9-3.6-2.9h-4.7c-0.5-3.3-2.6-6.9-9.3-6.3c0,0-6.8-16.9-22.1-8.7
	c0,0-14-12.3-25.3,1.5c0,0-12-12.8-18-1c0,0-14,1-12.4,10.2c0,0-9.5-1.7-11.5,4.2h-5.4c-1.5,0-3.1,1.3-3.6,2.9L2.9,135.2
	c-0.4,1.6,0.9,3.8,2.4,3.8h139.3C146.1,139,147.4,136.4,146.9,134.7z M100.1,121.1c0,4.3-3.2,7.8-7.1,7.8c-3.4,0-6.3-2.7-7-6.2H68.8
	c-0.7,3.6-3.5,6.2-7,6.2c-3.9,0-7.1-3.5-7.1-7.8c0-2.3,0.9-4.4,2.4-5.9c-1.5-1.4-2.4-3.5-2.4-5.9c0-4.3,3.2-7.8,7.1-7.8
	c3.5,0,6.4,2.8,7,6.5H86c0.6-3.7,3.5-6.5,7-6.5c3.9,0,7.1,3.5,7.1,7.8c0,2.3-0.9,4.4-2.4,5.9C99.2,116.7,100.1,118.8,100.1,121.1z"
	/>
</svg>
