<?xml version="1.0" encoding="utf-8"?>
<!-- Generator: Adobe Illustrator 21.1.0, SVG Export Plug-In . SVG Version: 6.00 Build 0)  -->
<svg version="1.1" id="Layer_1" xmlns="http://www.w3.org/2000/svg" xmlns:xlink="http://www.w3.org/1999/xlink" x="0px" y="0px"
	 viewBox="0 0 150 150" style="enable-background:new 0 0 150 150;" xml:space="preserve">
<style type="text/css">
	.st0{fill-rule:evenodd;clip-rule:evenodd;fill:#454545;}
</style>
<g>
	<g>
		<g>
			<path class="st0" d="M98.7,145c-3.5,0.2-1.7-41.9-28.8-30.9c-8.4,3.4-6.2,14.7-6.5,23.5c-0.1,4.6-1.8,6.9-6.2,6.8
				c-16.9-0.7-13.8,6.2-17.3-15.1c-2.8-17-7.5-33.7-11.2-50.6c-0.4-1.8-0.7-3.7-1.1-5.7c1.3-0.3,2.1-0.6,2.9-0.6
				c27.8,0.5,55.6,0.9,83.5,1.6c11.5,0.3,11.8,0.7,10.8,12.3c-1.6,16.8-3.8,35.6-5.7,52.4c-0.4,3.9-2.3,5.3-6.1,5.4
				C108.4,144.2,103.8,144.7,98.7,145z"/>
			<path class="st0" d="M83,5.1c7.1-0.6,14.4,2,22.3,9.9c12.1,12.2,37,37.3,37.4,37.7c8.9,11.9,8.7,12.4-3.1,21.5
				c-3.2,2.4-5.5,2.2-8-0.5c-9.2-9.7-38.7-38.3-42.5-43c-1.9-2.3-6.4-1.3-10.1,0.9C61,42.2,13,81,6,69.5
				c-6.8-11.2-7.8-12.2,1.8-18.3c14-9,27.6-18.5,41.4-27.9C61,15.1,71.8,6.1,83,5.1z"/>
			<path class="st0" d="M95,57c0.7,0.7,4.1,4.4,3.7,6.7c-0.5,3.7-4.9,6-7.4,3.6c-1.3-1.2-3.4-5.2-4.5-5.5c-0.7-0.2-9.5-1.7-10.8,2.3
				c-1.1,3.3-4.4,6.2-8.9,2.7c-1.8-1.4-2-4-1.1-5.6c1.7-3.3,2-6.1-0.1-9.5c-2.6-4.3,0.9-10.5,7-8.5c2.6,0.9,4.5,8.5,4.5,9.7
				c3.3-0.3,6.5-0.5,9.6-0.9c0.5-0.1,4-4.9,5.6-6.1c2.9-2.1,6.1-0.6,6.8,3C100.1,51.8,98.9,54.1,95,57z"/>
		</g>
	</g>
</g>
</svg>
