<?xml version="1.0" encoding="utf-8"?>
<!-- Generator: Adobe Illustrator 21.1.0, SVG Export Plug-In . SVG Version: 6.00 Build 0)  -->
<svg version="1.1" id="Layer_1" xmlns="http://www.w3.org/2000/svg" xmlns:xlink="http://www.w3.org/1999/xlink" x="0px" y="0px"
	 viewBox="0 0 100 125" style="enable-background:new 0 0 100 125;" xml:space="preserve">
<g>
	<path d="M10,22h12.8l8,37.3c0.6,2.7,3,4.7,5.8,4.7h39.9c2.7,0,5-1.7,5.8-4.3L91.8,30c0.1-0.4,0.2-0.8,0.2-1.2c0-2.7-2.1-4.8-5-4.8
		H42.2c-2.2,0-4,1.8-4,4s1.8,4,4,4h40.6l-2.6,8h-37c-2.2,0-4,1.8-4,4s1.8,4,4,4h34.5l-2.6,8H38.2l-8-37.1c-0.6-2.8-3.1-4.9-6-4.9H10
		c-2.2,0-4,1.8-4,4S7.8,22,10,22z"/>
	<path d="M71.3,89c5.7,0,10.3-4.7,10.3-10.5c0-5.4-3.9-9.8-9-10.4c0,0,0,0-0.1,0s-0.2,0-0.3,0c-0.2,0-0.3,0-0.5,0H41
		c-0.1,0-0.1,0-0.2,0c-0.1,0-0.3,0-0.4,0c-5.7,0-10.3,4.7-10.3,10.5S34.7,89,40.3,89s10.3-4.7,10.3-10.5c0-0.9-0.1-1.7-0.3-2.5h11.1
		c-0.2,0.8-0.3,1.6-0.3,2.5C61.1,84.3,65.7,89,71.3,89z M71.3,76c1.2,0,2.3,1.1,2.3,2.5s-1,2.5-2.3,2.5S69,79.9,69,78.5
		S70.1,76,71.3,76z M40.3,81c-1.2,0-2.3-1.1-2.3-2.5s1-2.5,2.3-2.5s2.3,1.1,2.3,2.5S41.6,81,40.3,81z"/>
</g>
</svg>
