<?xml version="1.0" encoding="utf-8"?>
<!-- Generator: Adobe Illustrator 21.1.0, SVG Export Plug-In . SVG Version: 6.00 Build 0)  -->
<svg version="1.1" id="Layer_1" xmlns="http://www.w3.org/2000/svg" xmlns:xlink="http://www.w3.org/1999/xlink" x="0px" y="0px"
	 viewBox="0 0 150 150" style="enable-background:new 0 0 150 150;" xml:space="preserve">
<style type="text/css">
	.st0{fill-rule:evenodd;clip-rule:evenodd;fill:#454545;}
</style>
<g>
	<g>
		<g>
			<path class="st0" d="M12.3,94.3c0-0.3,0.1-0.7,0.1-1c2.3-20.2,22.3-51.1,46.1-38.8c14.7,7.6,29.6,52.5,6.7,58.8
				c-6.3,1.7-12.2-2.7-18.3-1.9c-6.7,0.9-10,7.1-16.3,8.5C13.9,123.6,11.2,106.8,12.3,94.3z"/>
			<path class="st0" d="M1.2,47.5c-5.1-15.1,14.8-17.3,19.4-4c1.7,5,1.6,13.6-2.6,16.8C10.8,66,3.3,53.7,1.2,47.5z"/>
			<path class="st0" d="M75.6,38.2c12-8.8,19.6,8.3,9,16.2c-4,2.9-11.7,5.3-15.8,2.5C61.8,52,70.7,41.9,75.6,38.2z"/>
			<path class="st0" d="M19.7,29.9c-1.1-16.7,19.8-15,22.1-0.7c0.9,5.8-0.8,15.2-6,18C27.4,51.7,20.4,40.1,19.7,29.9z"/>
			<path class="st0" d="M49,25.8c4.6-16.1,23.7-7.5,21.1,6.8c-1.1,5.8-5.8,14-11.7,14.9C49,48.9,46.2,35.6,49,25.8z"/>
		</g>
		<g>
			<path class="st0" d="M93.4,97.6c25-14.1,36.8,8,37.5,21.5c0.9,16.5-15.2,17.8-21,10.3c-4.6-6-1.7-12-11-10.7
				c-4.4,0.7-11.3,0.2-13.5-4.9C82.6,107.6,88,100.7,93.4,97.6z"/>
			<path class="st0" d="M100.1,76.2c1.6-10.9,14.5-6,13.2,3.6c-0.5,3.6-3.3,8.9-6.9,9.6C100.2,90.6,99.5,80.7,100.1,76.2z"/>
			<path class="st0" d="M142.3,100.9c10.3-0.3,7.9,12.5-1.2,12.8c-3.4,0.1-8.7-1.6-9.9-4.8C129,103.3,138,101,142.3,100.9z"/>
			<path class="st0" d="M116.5,76.4c5.9-9.9,17.2-0.8,12.9,8.3c-1.7,3.7-6.4,8.3-10.5,7.9C112.3,91.8,112.9,82.5,116.5,76.4z"/>
			<path class="st0" d="M132.3,84.2c9.5-6.6,15.9,6.4,8.3,12.9c-3.1,2.6-9.3,4.9-12.8,2.8C122.1,96.5,126.4,88.2,132.3,84.2z"/>
		</g>
	</g>
</g>
</svg>
