<?xml version="1.0" encoding="utf-8"?>
<!-- Generator: Adobe Illustrator 21.1.0, SVG Export Plug-In . SVG Version: 6.00 Build 0)  -->
<svg version="1.1" id="Layer_1" xmlns="http://www.w3.org/2000/svg" xmlns:xlink="http://www.w3.org/1999/xlink" x="0px" y="0px"
	 viewBox="0 0 335 466" style="enable-background:new 0 0 335 466;" xml:space="preserve">
<style type="text/css">
	.st0{fill:#D7482F;}
	.st1{fill:#422F1E;}
	.st2{fill:#E0BA92;}
	.st3{fill:#AA7566;}
	.st4{fill:#1E120D;}
	.st5{fill:#8B6137;}
	.st6{fill:#0E0600;}
	.st7{fill:#221000;}
	.st8{fill:#FFE36F;}
	.st9{fill:#FFFFFF;}
	.st10{fill:#F19800;}
	.st11{fill:#D3A67F;}
	.st12{fill:#5D4432;}
</style>
<g>
	<g id="XMLID_1_">
		<g>
			<path class="st0" d="M55.6,189.4c-0.8-0.5-1.3-0.9-1.7-1.3c-9.4-10.2-1.4-23.2-1.4-23.2c2.1,1.5,4.6,2.9,7.4,4.4
				c24.6,13.2,74.6,28.1,116.3,30.3c18.4,1,35.1-0.6,47.5-5.8l0.1,0.2c0,0,2,7.4-2.3,15c-1.2,2.1-2.9,4.3-5.3,6.3
				C196.1,232.2,73.7,201,55.6,189.4C55.6,189.4,55.6,189.4,55.6,189.4z"/>
			<path class="st1" d="M233.8,459.1c1.1,0.3,1.9,1.4,1.6,2.5c-0.3,1.1-1.4,1.7-2.6,1.5c-1.2-0.3-1.9-1.4-1.6-2.5
				C231.5,459.4,232.6,458.8,233.8,459.1z"/>
			<path class="st1" d="M240.3,452.7c1.7,0.4,2.7,2,2.3,3.6c-0.4,1.6-2,2.5-3.7,2.1s-2.7-2-2.3-3.6
				C236.9,453.2,238.6,452.3,240.3,452.7z"/>
			<path class="st1" d="M238.9,444.7c1.7,0.4,2.7,2,2.3,3.6c-0.4,1.6-2.1,2.5-3.7,2.1c-1.7-0.4-2.7-2-2.3-3.6
				C235.5,445.3,237.2,444.3,238.9,444.7z"/>
			<path class="st1" d="M219.5,437.7c10,3.9,16.4,11.3,14.4,16.5c-2,5.3-11.8,6.4-21.7,2.6c-10-3.9-16.4-11.3-14.4-16.5
				C199.8,435,209.6,433.9,219.5,437.7z"/>
			<path class="st1" d="M174.3,450.6l0.1,0.2c-14.7,5.4-41,4.9-44.5-2.3c-3.2-6.7,4.1-13.7,8.9-17.4
				C143.7,431.7,169.3,435.9,174.3,450.6z"/>
			<path class="st1" d="M72.5,447.7c-12.4,2.7-27.2,2.5-29.7-3.5c-2.7-6.7,1.7-12.4,5.4-15.7C51.6,428.9,67,431.7,72.5,447.7z"/>
			<path class="st2" d="M305.3,303.1c-6.2-0.4-12.6-3.1-16.9-7.5c-1.5-3-3.2-5.9-5-8.7c-0.5-2-0.7-4.2-0.4-6.5
				c2.3-19.9,22.4-24,37.5-11.9c20.6,16.5,10.4,38.9,3,49.7c-7.4,10.8-20.6,17.9-20.6,17.9l-0.2,0.3c-1.5-1-3.1-1.7-4.7-2.3l0.1-0.2
				c0.4-6.7-0.5-13.5-2.3-20C296.3,313.8,304,311.8,305.3,303.1z M308.4,287.4l0-0.5c0,0,1.1-9-4.5-9.6c-4.9-0.6-9.5,6,0.2,9.4
				C305.8,287.3,307.2,287.5,308.4,287.4z"/>
			<path class="st2" d="M142.7,428.4c-20.1-3.5-36.2-10.4-48.8-19.6c-1.7,14.7-3.5,26-3.7,29.4c-0.2,3.9-8.3,7.5-17.7,9.5
				c-5.5-16.1-20.9-18.8-24.3-19.3c2.1-1.9,4-3.1,4-3.1s-10.7-12.8-21.8-87.5c-10.9-73.5,24-146.1,25.2-148.5
				c18,11.6,140.4,42.8,160.5,26c2.4-2,4.1-4.2,5.3-6.3l0.6,0.4c0,0,20.9,15.4,21.3,32.4c0,0,23.7,19.1,39.9,45.1
				c0.8,3.4,2.6,6.3,5,8.7c3.1,5.9,5.7,12.1,7.4,18.4c1.8,6.6,2.7,13.3,2.3,20l-0.1,0.2c1.5,0.6,3.1,1.3,4.7,2.3
				c6.4,4,12.3,11.9,12.9,27c1.3,34.1-69.1,85.8-69.1,85.8s6.4,16.2-19.2,17.1c-25.6,0.8-40.5-20.5-35-32.9l-6.3,1.7
				c-0.9,3.2-1.6,5.6-1.9,7.3c-0.6,3.5-4.4,6.3-9.8,8.3l-0.1-0.2c-5-14.6-30.6-18.8-35.5-19.5C141,429.4,142.7,428.4,142.7,428.4z
				 M242.6,456.3c0.4-1.6-0.6-3.2-2.3-3.6c-1.7-0.4-3.3,0.6-3.7,2.1c-0.4,1.6,0.6,3.2,2.3,3.6S242.2,457.8,242.6,456.3z
				 M241.2,448.3c0.4-1.6-0.7-3.2-2.3-3.6c-1.7-0.4-3.3,0.6-3.7,2.1c-0.4,1.6,0.7,3.2,2.3,3.6C239.1,450.8,240.8,449.9,241.2,448.3z
				 M235.4,461.6c0.2-1.1-0.5-2.2-1.6-2.5c-1.2-0.3-2.3,0.4-2.6,1.5c-0.3,1.1,0.4,2.2,1.6,2.5C234,463.3,235.1,462.6,235.4,461.6z
				 M233.9,454.3c2.1-5.3-4.4-12.7-14.4-16.5c-10-3.8-19.7-2.7-21.7,2.6c-2,5.3,4.4,12.7,14.4,16.5
				C222.1,460.7,231.8,459.5,233.9,454.3z"/>
			<path class="st1" d="M314.9,85.2c3.6,38-38.7,78.5-50.1,77.4C259.1,162,258,137,258,137l-0.5-0.1c7.5-39.4,0.3-85.7-25.1-100.7
				C232.4,36.3,310.9,43.1,314.9,85.2z"/>
			<path class="st2" d="M232.4,36.3c25.5,15,32.6,61.2,25.1,100.7c-3.5,18.3-10.1,35.2-19.4,46.7c-3.5,4.4-8.4,7.7-14.3,10.2
				c-12.3,5.2-29.1,6.7-47.5,5.8l0-0.4c11.9-17.9,18.8-56.9,5.7-83.6c-10.8-22.1-46.4-43-80.8-23.6c-32.8,18.4-40.5,72.2-41.2,77.3
				c-2.8-1.5-5.3-3-7.4-4.4c-26.7-18.3-24.1-53.6-22.3-65.4c0,0,0,0,0,0c11.4-29.9,30-88.8,78.7-91.6
				C108.9,7.8,181.1,6.1,232.4,36.3z"/>
			<path class="st1" d="M182,115.7c13.1,26.8,6.3,65.7-5.7,83.6l0,0.4c-41.7-2.2-91.7-17.2-116.3-30.3c0.7-5.1,8.4-58.9,41.2-77.3
				C135.6,72.7,171.2,93.5,182,115.7z"/>
			<path class="st1" d="M30.2,99.4C30.2,99.4,30.2,99.4,30.2,99.4c-4.6,12.1-8.1,19.5-11.8,16.5c-13.1-10.2-26.7-79.7-5.7-103
				s96.2-5.1,96.2-5.1C60.2,10.6,41.6,69.5,30.2,99.4z"/>
		</g>
		<g>
			<g>
				<path class="st3" d="M174.2,450.4c2.9-1.1,5.8-2.5,7.8-4.8c0.5-0.6,0.9-1.2,1.2-1.9c0.3-0.7,0.4-1.4,0.5-2.2
					c0.3-1.6,0.7-3.1,1.1-4.7c1.7-6.1,3.6-12.1,5.4-18.2c3.6-12.1,6.8-24.3,9.4-36.7c2.7-12.3,4.7-24.8,5.8-37.4
					c0.2-3.1,0.5-6.3,0.6-9.4c0.1-3.2,0.2-6.3,0.2-9.5c-0.1-3.2-0.1-6.3-0.2-9.5l-0.7-9.4l0,0c0-0.2,0.1-0.4,0.4-0.4
					c0.2,0,0.4,0.1,0.4,0.4l0.8,9.5c0.1,3.2,0.2,6.3,0.3,9.5c0,3.2-0.1,6.3-0.2,9.5c-0.1,3.2-0.4,6.3-0.6,9.5
					c-1,12.6-3,25.2-5.6,37.6c-2.7,12.4-6,24.6-9.7,36.7c-1.8,6.1-3.7,12.1-5.5,18.1c-0.4,1.5-0.9,3-1.2,4.5
					c-0.1,0.7-0.3,1.6-0.6,2.4c-0.3,0.8-0.8,1.5-1.4,2.1c-2.3,2.5-5.3,3.8-8.3,4.9c-0.2,0.1-0.4,0-0.5-0.2
					C173.9,450.7,174,450.5,174.2,450.4L174.2,450.4z"/>
			</g>
			<g>
				<path class="st3" d="M143.5,324.7c-0.4,4.3-0.8,8.6-1.1,12.9c-0.3,4.3-0.6,8.6-0.9,13c-0.5,8.6-0.9,17.3-1.1,25.9
					c-0.2,8.7-0.3,17.3,0.1,26c0.4,8.6,1,17.3,2.5,25.8l0,0c0,0.2-0.1,0.4-0.2,0.5c-1.3,0.8-2.6,1.7-3.9,2.6
					c-0.2,0.1-0.4,0.1-0.6-0.1c-0.1-0.2-0.1-0.4,0.1-0.5c1.3-1,2.6-1.9,3.9-2.7l-0.2,0.5c-1.8-8.5-2.5-17.2-3-25.9
					c-0.4-8.7-0.4-17.4-0.2-26c0.2-8.7,0.6-17.3,1.3-26c0.6-8.7,1.4-17.3,2.5-25.9c0-0.2,0.2-0.4,0.4-0.3
					C143.4,324.3,143.6,324.5,143.5,324.7z"/>
			</g>
			<g>
				<path class="st3" d="M222.3,209.1c2.7,2,5.2,4.2,7.6,6.6c2.4,2.4,4.6,4.8,6.6,7.6c2,2.7,3.8,5.6,5.1,8.7
					c1.4,3.1,2.2,6.5,2.4,9.9l-0.2-0.5c7.1,5.9,13.8,12.4,20.1,19.1c3.1,3.4,6.2,6.9,9,10.5c1.5,1.8,2.8,3.7,4.2,5.5
					c1.4,1.9,2.7,3.8,4,5.7c5.2,7.7,9.6,15.9,12.9,24.6c3.2,8.7,5,18,4.5,27.3c0,0.2-0.2,0.4-0.4,0.4c-0.2,0-0.4-0.2-0.4-0.4
					c0.4-9.2-1.6-18.3-4.8-26.8c-3.3-8.6-7.7-16.6-12.9-24.2c-5.1-7.6-11-14.7-17.2-21.5c-6.2-6.8-12.8-13.2-19.8-19.1l0,0
					c-0.1-0.1-0.2-0.3-0.2-0.5c-0.1-3.2-0.9-6.4-2.2-9.4c-1.3-3-3-5.8-4.9-8.5c-1.9-2.7-4.1-5.2-6.4-7.5c-2.3-2.4-4.8-4.6-7.4-6.6
					l0,0c-0.2-0.1-0.2-0.4-0.1-0.6C221.9,209,222.2,209,222.3,209.1z"/>
			</g>
			<g>
				<path class="st3" d="M246.2,449c5.4-4.1,10.6-8.4,15.7-12.7c5.1-4.4,10.2-8.9,15-13.5c9.7-9.3,19-19.2,26.7-30.2
					c3.8-5.5,7.3-11.3,9.4-17.6c0.6-1.6,0.9-3.2,1.3-4.8c0.2-1.6,0.6-3.3,0.5-4.9c0.1-1.6,0-3.3-0.2-5c-0.2-1.7-0.4-3.3-0.7-4.9
					c-0.7-3.3-1.7-6.4-3.3-9.3c-0.8-1.5-1.7-2.8-2.8-4.1c-1.1-1.3-2.3-2.4-3.5-3.4c-5.2-4.2-12-6-18.6-5.7l0,0
					c-0.2,0-0.4-0.2-0.4-0.4c0-0.2,0.2-0.4,0.4-0.4c3.5-0.3,6.9,0.1,10.2,1c3.3,0.9,6.5,2.4,9.2,4.5c1.4,1.1,2.6,2.3,3.7,3.6
					c1.1,1.3,2.1,2.8,2.9,4.3c1.7,3,2.8,6.3,3.5,9.7c0.4,1.7,0.6,3.4,0.8,5.1c0.2,1.7,0.3,3.4,0.2,5.1c0,1.7-0.3,3.4-0.5,5.1
					c-0.4,1.7-0.8,3.4-1.4,5c-2.2,6.5-5.6,12.5-9.5,18c-3.9,5.6-8.2,10.8-12.7,15.8c-4.5,5-9.3,9.8-14.3,14.4
					c-4.9,4.6-10,9.1-15.2,13.5c-5.2,4.3-10.5,8.5-16,12.5c-0.2,0.1-0.4,0.1-0.6-0.1C246,449.4,246,449.1,246.2,449L246.2,449z"/>
			</g>
			<g>
				<path class="st3" d="M239.5,363.3l-23.9,34.9c-4,5.8-8,11.7-11.9,17.5c-2,2.9-3.9,5.9-5.8,8.9c-1,1.5-1.9,3-2.8,4.5
					c-0.9,1.5-1.7,3-2.6,4.6l0,0c-0.1,0.2-0.3,0.3-0.5,0.2c-0.2-0.1-0.3-0.3-0.2-0.5c3.1-6.4,6.9-12.4,10.7-18.3
					c3.8-6,7.8-11.8,11.7-17.6c4-5.8,8-11.6,12.1-17.4l6.2-8.6l6.3-8.5c0.1-0.2,0.4-0.2,0.6-0.1
					C239.6,362.9,239.6,363.1,239.5,363.3z"/>
			</g>
			<g>
				<path class="st3" d="M213.5,430.6c3.4-0.5,6.7,0,10,0.8c3.2,0.8,6.3,2.2,9.2,3.9c1.4,0.9,2.8,1.8,4.1,2.9c0.6,0.5,1.3,1,1.9,1.6
					l1.8,1.7c0.6,0.6,1.2,1.2,1.7,1.8l1.6,1.9c1,1.3,2,2.7,2.9,4c0.1,0.2,0.1,0.4-0.1,0.6c-0.2,0.1-0.4,0.1-0.5-0.1l0,0
					c-1.1-1.2-2.1-2.5-3.1-3.7l-1.7-1.8c-0.6-0.6-1.1-1.2-1.7-1.7l-1.8-1.6c-0.6-0.6-1.3-1-1.9-1.5c-1.2-1-2.6-1.8-4-2.7
					c-2.8-1.6-5.7-3-8.8-3.9c-3.1-0.9-6.3-1.4-9.5-1.3l0,0c-0.2,0-0.4-0.2-0.4-0.4C213.2,430.8,213.3,430.6,213.5,430.6z"/>
			</g>
			<g>
				<path class="st3" d="M54.3,243.2c-2.1,9.4-3.4,19.1-4.4,28.7c-0.9,9.6-1.4,19.3-1.3,29c0.3,19.3,2.9,38.8,9.4,57
					c3.2,9.1,7.4,17.9,12.8,25.9c5.4,8,11.9,15.2,19.4,21.3c7.4,6.2,15.9,11,24.8,14.8c8.9,3.8,18.3,6.4,27.8,8.1
					c0.2,0,0.4,0.2,0.3,0.5c0,0.2-0.2,0.4-0.5,0.3c-9.6-1.6-19.1-4.1-28.1-7.8c-9-3.7-17.6-8.6-25.1-14.8
					c-7.6-6.1-14.3-13.4-19.7-21.5c-5.5-8.1-9.8-16.9-13.1-26.1c-6.5-18.4-9-38-9.3-57.5c-0.1-19.5,1.8-38.9,6.1-57.9
					c0-0.2,0.3-0.3,0.5-0.3C54.2,242.8,54.4,243,54.3,243.2L54.3,243.2z"/>
			</g>
			<g>
				<path class="st3" d="M295.7,313.6L295.7,313.6L295.7,313.6c1.1-0.5,2.1-1.1,3.2-1.7c1-0.7,1.9-1.5,2.7-2.4c0.8-0.9,1.5-1.9,2-3
					c0.6-1.1,0.9-2.3,1.3-3.5l0-0.1c0,0,0,0,0-0.1l0.2-0.2c0.1-0.1,0.3-0.1,0.4,0c0.1,0.1,0.1,0.2,0.1,0.2c0,0.1,0,0.2,0,0.3l0-0.1
					c-0.1,1.3-0.3,2.6-0.9,3.9c-0.2,0.6-0.6,1.2-0.9,1.8c-0.4,0.6-0.8,1.1-1.2,1.6c-0.9,1-2,1.9-3.1,2.5c-1.2,0.7-2.4,1.2-3.7,1.4
					l-0.1,0l0,0l0,0c-0.2,0-0.4-0.2-0.4-0.4C295.4,313.8,295.5,313.6,295.7,313.6z"/>
			</g>
			<g>
				<path class="st3" d="M302.7,335.8c4.5-2.6,8.7-5.7,12.5-9.1c3.8-3.5,7.2-7.4,9.8-11.9c2.6-4.4,4.7-9.2,6-14.2
					c1.2-5,1.4-10.2,0.2-15.2c-1.2-5-4-9.5-7.5-13.1c-3.6-3.6-7.9-6.7-12.7-8.4c-4.8-1.7-10.1-2.1-14.9-0.4
					c-2.4,0.8-4.6,2.1-6.3,3.9c-1.8,1.7-3.2,3.9-4.2,6.2c-1,2.3-1.6,4.8-1.8,7.3c-0.3,2.5,0,5,0.9,7.4c0.8,2.4,2.2,4.5,3.9,6.4
					c1.7,1.8,3.8,3.4,6,4.6c4.5,2.4,9.6,3.6,14.7,3.2c2.5-0.2,5-0.9,7.2-2c1.1-0.6,2.1-1.3,3.1-2.1l0.7-0.7l0.6-0.7
					c0.4-0.5,0.8-1,1.1-1.5c1.4-2.1,2-4.6,1.9-7.1c-0.1-1.2-0.4-2.4-0.9-3.6c-0.5-1.1-1.3-2.1-2.2-2.7c-1-0.6-2.2-0.7-3.2-0.2
					c-1,0.5-1.9,1.4-2.7,2.4c-0.9,1-1.8,2-3,2.7c-1.2,0.8-2.7,1-4.1,1c-1.4-0.1-2.7-0.4-4-0.9c-1.2-0.5-2.5-1-3.6-1.9
					c-1.1-0.8-2.1-2.1-2.2-3.6c-0.1-0.4,0-0.7,0.1-1.1c0.1-0.4,0.2-0.7,0.4-1c0.4-0.6,0.9-1.2,1.5-1.6c1.2-0.8,2.6-1.2,4-1l1,0.2
					c0.3,0.2,0.7,0.3,1,0.5c0.6,0.4,1.1,0.9,1.5,1.5c0.8,1.2,1.1,2.5,1.3,3.9c0.2,1.3,0.2,2.7,0,4c0,0.2-0.2,0.4-0.4,0.4
					c-0.2,0-0.4-0.2-0.4-0.4l0,0c0.1-1.2,0.1-2.6-0.1-3.8c-0.2-1.2-0.5-2.5-1.2-3.5c-0.6-1-1.7-1.7-2.9-1.8
					c-1.2-0.1-2.4,0.2-3.4,0.9c-1,0.7-1.6,1.8-1.5,2.9c0.1,1.1,0.9,2.1,1.8,2.8c0.9,0.8,2.1,1.3,3.3,1.7c1.2,0.4,2.4,0.7,3.6,0.8
					c1.2,0,2.4-0.2,3.4-0.9c1-0.6,1.9-1.5,2.7-2.5c0.9-1,1.7-2.1,3.1-2.7c1.4-0.7,3-0.5,4.3,0.3c1.3,0.8,2.1,1.9,2.7,3.2
					c0.6,1.3,0.9,2.6,1,4c0.1,2.7-0.5,5.5-2,7.8c-0.4,0.6-0.7,1.2-1.2,1.6l-0.7,0.8l-0.7,0.7c-1,0.9-2.1,1.7-3.3,2.3
					c-2.4,1.3-5.1,2-7.7,2.2c-5.3,0.5-10.8-0.8-15.5-3.3c-2.3-1.3-4.5-2.9-6.4-4.8c-1.8-2-3.3-4.3-4.2-6.9c-0.9-2.5-1.2-5.3-1-8
					c0.3-2.7,0.9-5.3,1.9-7.8c1-2.5,2.6-4.8,4.5-6.7c1.9-1.9,4.4-3.3,6.9-4.2c5.2-1.8,10.8-1.3,15.8,0.5c5.1,1.8,9.5,5,13.2,8.7
					c3.7,3.8,6.6,8.5,7.8,13.7c1.3,5.2,1,10.7-0.2,15.8c-1.3,5.1-3.4,10-6.1,14.5c-2.7,4.5-6.2,8.6-10.1,12.1
					c-4,3.5-8.2,6.5-12.8,9.1c-0.2,0.1-0.4,0-0.5-0.2C302.5,336.2,302.5,335.9,302.7,335.8L302.7,335.8z"/>
			</g>
		</g>
	</g>
	<ellipse class="st4" cx="78.7" cy="82.7" rx="9.4" ry="9.4"/>
	<circle class="st4" cx="202.5" cy="111.7" r="9.4"/>
	<g>
		<path class="st5" d="M100,45.1c4.3-1.5,8.8-2.9,13.3-3.7c4.6-0.8,9.3-1.1,13.9-0.4c2.3,0.4,4.6,1,6.7,1.9c2.1,1,4.2,2.1,6.1,3.5
			c3.8,2.7,7.2,5.8,10.8,8.7c1.8,1.5,3.6,2.9,5.5,4.1c1.9,1.2,4,2.2,6.1,2.8c2.2,0.6,4.4,0.6,6.7,0.3c2.2-0.3,4.5-0.9,6.7-1.5
			c4.4-1.2,9.1-2.4,13.8-1.7c2.3,0.3,4.6,1.2,6.5,2.5c2,1.3,3.7,2.9,5.2,4.6c0.1,0.1,0.1,0.3,0,0.4c-0.1,0.1-0.3,0.1-0.4,0
			c-3-3.4-6.9-6.2-11.5-6.7c-4.5-0.7-9,0.5-13.4,1.7c-2.2,0.6-4.5,1.2-6.8,1.5c-1.2,0.2-2.3,0.3-3.5,0.3c-1.2,0-2.4-0.2-3.5-0.5
			c-2.3-0.6-4.5-1.6-6.4-2.8c-2-1.2-3.8-2.6-5.6-4.1c-3.6-2.9-6.9-6.1-10.7-8.7c-1.8-1.3-3.8-2.5-5.9-3.4c-2.1-0.9-4.3-1.5-6.5-1.9
			c-4.5-0.7-9.1-0.5-13.6,0.3c-4.5,0.7-8.9,2-13.3,3.5c-0.1,0-0.3,0-0.3-0.2C99.7,45.3,99.8,45.2,100,45.1L100,45.1z"/>
	</g>
	<g>
		<path class="st5" d="M125,30.6c3.3-1,6.8-1.4,10.2-1.3c3.4,0,6.9,0.7,10.1,2l1.2,0.5c0.4,0.2,0.8,0.4,1.2,0.6l1.1,0.6l1.1,0.7
			l1.1,0.7l1,0.8c0.7,0.5,1.3,1.1,2,1.7c2.6,2.3,4.9,4.8,7.1,7.4c1.1,1.3,2.2,2.6,3.5,3.6c1.3,1,2.9,1.5,4.5,1.7
			c0.8,0.1,1.7,0.1,2.5,0.1c0.8-0.1,1.7-0.1,2.5-0.2c1.7-0.2,3.3-0.5,5-0.8c3.3-0.7,6.7-1.4,10.1-1.6c3.4-0.2,7,0.4,10,2.4
			c0.1,0.1,0.2,0.2,0.1,0.4c-0.1,0.1-0.2,0.2-0.4,0.1l0,0c-2.9-1.8-6.3-2.3-9.6-2.1c-3.4,0.2-6.7,1-10,1.7c-1.7,0.3-3.4,0.7-5.1,0.9
			c-0.8,0.1-1.7,0.2-2.6,0.2c-0.9,0-1.7,0-2.6-0.1c-1.7-0.1-3.5-0.7-5-1.8c-1.4-1.1-2.6-2.4-3.7-3.7c-2.2-2.6-4.5-5.1-7-7.3
			c-2.5-2.3-5.2-4.4-8.3-5.6c-3.1-1.3-6.4-1.9-9.8-2c-3.4-0.1-6.8,0.2-10,1.1l0,0c-0.1,0-0.3,0-0.3-0.2
			C124.8,30.8,124.9,30.7,125,30.6z"/>
	</g>
	<g>
		<path class="st6" d="M132.1,120.6c-0.4,4-1.1,8-1.9,11.9c-0.4,2-0.8,3.9-1.3,5.9l-0.7,2.9l-0.7,2.8l0,0.1
			c-0.1,0.3-0.4,0.4-0.6,0.4c-0.2-0.1-0.4-0.3-0.4-0.5c0-0.6,0.1-1.1,0.1-1.6l0.2-1.5c0.1-1,0.3-2,0.4-3c0.3-2,0.7-4,1-5.9
			c0.8-3.9,1.6-7.9,2.8-11.7c0.1-0.3,0.4-0.4,0.7-0.4C132,120.1,132.2,120.4,132.1,120.6z"/>
	</g>
	<g>
		<path class="st6" d="M91.5,110.3c0,2.1,0.4,4.4,1,6.4c0.3,1.1,0.8,2.1,1.2,3.1c0.5,1,1,1.9,1.5,2.9c2.3,3.7,5.4,7,9,9.5
			c0.8,0.7,1.8,1.2,2.8,1.8l1.4,0.9l0.7,0.4c0.2,0.1,0.5,0.2,0.7,0.4c2,1,3.9,2.1,6,2.8l3.1,1.2c1,0.4,2.1,0.6,3.2,1l3.2,0.9
			c1.1,0.3,2.2,0.5,3.3,0.8c4.4,1,8.8,1.7,13.2,2c4.4,0.3,8.9,0.2,13.2-0.6c4.3-0.8,8.5-2.4,12.1-4.9c1.8-1.2,3.4-2.7,4.8-4.4
			c1.4-1.7,2.6-3.6,3.3-5.6l0,0c0.1-0.3,0.4-0.4,0.7-0.3c0.3,0.1,0.4,0.4,0.3,0.7c-0.7,2.3-1.9,4.3-3.3,6.1c-1.4,1.8-3.1,3.5-5,4.8
			c-3.7,2.7-8.1,4.5-12.7,5.4c-4.5,1-9.1,1.1-13.7,0.8c-4.6-0.3-9.1-1-13.5-2c-1.1-0.3-2.2-0.5-3.3-0.8l-3.3-1
			c-1.1-0.3-2.2-0.6-3.3-1l-3.2-1.3c-2.2-0.8-4.2-1.9-6.2-2.9c-0.3-0.1-0.5-0.3-0.8-0.4l-0.7-0.5l-1.5-0.9c-1-0.6-2-1.2-2.8-2
			c-3.7-2.7-6.9-6.2-9.2-10.2c-0.5-1-1.1-2.1-1.5-3.1c-0.4-1.1-0.9-2.1-1.1-3.3c-0.6-2.2-1-4.5-0.8-6.9c0-0.3,0.3-0.5,0.6-0.5
			C91.3,109.8,91.5,110,91.5,110.3L91.5,110.3z"/>
	</g>
	<g>
		<path class="st7" d="M139.4,442.7c-0.7,0.5-1.4,1.1-1.9,1.8c-0.5,0.7-0.8,1.5-1,2.4c-0.2,0.8-0.2,1.7-0.2,2.6
			c0,0.4,0.1,0.9,0.1,1.3c0.1,0.4,0.1,0.9,0.2,1.4l0,0c0,0.1-0.1,0.3-0.2,0.3c-0.1,0-0.2-0.1-0.3-0.2c-0.2-0.4-0.3-0.9-0.4-1.4
			c-0.1-0.5-0.2-0.9-0.2-1.4c-0.1-1-0.1-2,0.2-2.9c0.2-1,0.7-1.9,1.3-2.7c0.6-0.8,1.4-1.4,2.4-1.8c0.1,0,0.3,0,0.3,0.2
			C139.6,442.5,139.5,442.6,139.4,442.7L139.4,442.7z"/>
	</g>
	<g>
		<path class="st7" d="M153.6,445.6c-0.4,0.6-0.8,1.4-1.1,2.1c-0.3,0.7-0.4,1.5-0.4,2.3c0,0.8,0.1,1.6,0.3,2.3
			c0.2,0.8,0.5,1.5,0.8,2.3l0,0c0.1,0.1,0,0.3-0.1,0.3c-0.1,0.1-0.2,0-0.3-0.1c-0.2-0.4-0.5-0.7-0.7-1.1c-0.2-0.4-0.4-0.8-0.5-1.2
			c-0.3-0.8-0.4-1.7-0.4-2.6c0-0.9,0.2-1.8,0.6-2.6c0.4-0.8,0.9-1.6,1.5-2.2c0.1-0.1,0.3-0.1,0.4,0
			C153.7,445.4,153.7,445.5,153.6,445.6L153.6,445.6z"/>
	</g>
	<g>
		<path class="st7" d="M50.3,437.1c-0.5,0.8-0.9,1.6-1.3,2.5c-0.4,0.8-0.6,1.7-0.8,2.6c-0.2,0.9-0.2,1.8,0,2.7
			c0.1,0.9,0.5,1.7,0.9,2.6l0,0c0.1,0.1,0,0.3-0.1,0.3c-0.1,0.1-0.2,0-0.3-0.1c-0.6-0.8-1.1-1.7-1.3-2.7c-0.2-1-0.2-2-0.1-3
			c0.2-1,0.5-1.9,1-2.8c0.5-0.9,1-1.7,1.7-2.4c0.1-0.1,0.3-0.1,0.4,0C50.4,436.8,50.4,437,50.3,437.1L50.3,437.1z"/>
	</g>
	<g>
		<path class="st7" d="M58,440.4c-0.2,0.7-0.3,1.4-0.3,2.1c0,0.7,0,1.4,0.2,2.1c0.1,0.7,0.4,1.4,0.7,2c0.3,0.7,0.7,1.3,1.1,1.9l0,0
			c0.1,0.1,0,0.3-0.1,0.4c-0.1,0.1-0.2,0.1-0.3,0c-0.3-0.3-0.6-0.6-0.8-0.9c-0.2-0.3-0.5-0.6-0.7-1c-0.4-0.7-0.7-1.5-0.9-2.3
			c-0.2-0.8-0.2-1.6-0.1-2.4c0.1-0.8,0.3-1.6,0.8-2.3c0.1-0.1,0.2-0.2,0.4-0.1C58,440.2,58.1,440.3,58,440.4L58,440.4z"/>
	</g>
	<g>
		<path class="st3" d="M241.1,245.3c-1.1,1.7-2.4,3.3-3.7,4.9c-1.3,1.6-2.7,3.1-4.1,4.5c-2.9,2.9-6,5.5-9.4,7.8
			c-0.1,0.1-0.3,0-0.4-0.1c-0.1-0.1-0.1-0.3,0.1-0.3l0,0c1.6-1.3,3.1-2.5,4.6-3.9c1.5-1.3,3-2.7,4.4-4.2c1.4-1.4,2.8-2.9,4.1-4.4
			c1.3-1.5,2.7-3,3.9-4.6l0,0c0.1-0.1,0.3-0.1,0.4,0C241.2,245,241.2,245.2,241.1,245.3z"/>
	</g>
	<path class="st8" d="M133.3,235.2l-30.7-8c0,0-2.8-12.8-11.9-10.2c-9.1,2.6-7.7,15.4-2,18.5c0,0-12.5,7.7-4.6,14.8
		c8,7.1,15.1-5.7,15.1-5.7l29,9.4c0,0,5.5,11.3,12.8,5.1c7.4-6.3-1.1-12.5-1.1-12.5s14.8-6.2,9.1-12.8
		C141.9,225.5,133.3,235.2,133.3,235.2z"/>
	<g>
		<path class="st3" d="M220.5,266.1c-0.3,0.3-0.7,0.6-1.1,0.9c-0.4,0.3-0.8,0.6-1.2,0.8c-0.8,0.5-1.6,1-2.5,1.4
			c-0.1,0.1-0.3,0-0.3-0.2c0-0.1,0-0.2,0.1-0.3c0.7-0.7,1.5-1.2,2.3-1.8c0.4-0.3,0.8-0.5,1.2-0.7c0.4-0.2,0.9-0.5,1.3-0.6
			c0.1-0.1,0.3,0,0.3,0.2C220.6,265.9,220.6,266,220.5,266.1z"/>
	</g>
	<path class="st4" d="M117.5,97c-5.2,1.7-6.8,15.7-0.6,21.5c6.2,5.7,23.2,10.9,31,6.7c10.1-5.5,10.6-17.1,7.8-19.5
		C151.8,102.2,128.2,93.5,117.5,97z"/>
	<path class="st9" d="M137.1,103.3c-1.8-1.3-4.4-1.4-6.5-1.9c-1.7-0.4-3.5-0.5-5.1,0.1c-0.3,0.1-0.5,0.4-0.3,0.7
		c0.9,1.6,2.2,2.2,3.8,3c1.9,1,4.8,2.1,7,2C138.2,107.1,138.8,104.5,137.1,103.3z"/>
	<g>
		<path class="st10" d="M124.2,191.2c-0.9,3.1-1.7,6.1-2.4,9.2c-0.3,1.6-0.6,3.1-0.7,4.7c-0.1,1.5-0.2,3.1,0.1,4.5
			c0,0.2,0,0.3,0,0.5l0,0c-0.5,2-1,4-1.5,6.1c-0.5,2-0.9,4.1-1.2,6.1c-0.4,2-0.7,4.1-0.9,6.2c-0.2,2-0.3,4.1,0.1,6l0,0
			c0.1,0.3-0.1,0.6-0.4,0.6c-0.3,0.1-0.5-0.1-0.6-0.3c-0.4-1.1-0.5-2.2-0.6-3.2c-0.1-1.1-0.1-2.2,0-3.2c0.1-2.1,0.3-4.2,0.6-6.3
			c0.3-2.1,0.7-4.2,1.1-6.2c0.4-2.1,0.9-4.1,1.4-6.2l0,0.5c-0.4-1.8-0.3-3.5-0.1-5.1c0.2-1.6,0.5-3.3,0.9-4.8
			c0.4-1.6,0.8-3.1,1.4-4.7c0.5-1.5,1.1-3.1,1.7-4.6c0.1-0.3,0.4-0.4,0.7-0.3C124.1,190.7,124.2,191,124.2,191.2L124.2,191.2z"/>
	</g>
	<path class="st11" d="M152.9,372.5c-0.3-1.8-0.3-3.6-0.4-5.4c-0.1-2.2-3.4-2.2-3.5,0c-0.1,1.8-0.1,3.6-0.4,5.4
		c-0.2,1.4,0.6,2.8,2.2,2.8C152.3,375.3,153.1,373.9,152.9,372.5z"/>
	<path class="st11" d="M155.7,379.9c-1.1-0.7-2.6-0.3-3.3,0.9c-0.8,1.4-1.7,2.6-2.3,4.1c-0.8,1.9,1.1,3.8,2.9,3.8
		c1.9,0,3.5-1.9,2.9-3.8c0-0.1,0-0.2-0.1-0.2c0.2-0.5,0.5-1,0.7-1.5C157.1,382,156.9,380.7,155.7,379.9z"/>
	<path class="st11" d="M161.1,371c0-0.3-0.2-0.8-0.2-0.8c-0.1-0.5-0.2-0.9-0.3-1.3c-0.6-1.8-2.7-1.6-3.4,0c-0.2,0.5-0.5,0.9-0.9,1.2
		c-0.8,0.4-1.4,1.1-1.5,2c0,0.1,0,0.2-0.1,0.4c-0.4,1.9,0.5,3.8,2.5,4.4c2.3,0.6,4.4-1.1,4.5-3.4c0-0.1,0-0.2,0-0.4
		C161.8,372.4,161.5,371.6,161.1,371z"/>
	<path class="st11" d="M303.2,353.4c-2.8-0.5-5.7,0-6.8,3c-0.2,0.7-0.3,1.5-0.2,2.3c-0.1,1.6,0.4,3.2,1.6,4.3
		c0.5,0.4,0.9,0.8,1.4,1.1c0.1,0.1,0.1,0.1,0.2,0.2c0.2,0.1,0.1,0.1,0-0.1c0.9,0.6,1.9,0.9,3.2,1c1.4,0.2,3.1-0.7,4.1-1.7
		c1.2-1.2,1.5-2.5,1.7-4.1C308.6,356.4,305.8,353.8,303.2,353.4z"/>
	<path class="st11" d="M305.6,373.8c-0.2-1.7-1-3.2-2.8-3.6c-1.8-0.5-4.3,0.6-4.6,2.6c-0.3,1.7-0.7,2.7-1.3,4.1
		c-0.3,0.6-0.7,1.2-0.9,1.9c-0.2,0.6-0.2,1.4-0.2,2c-0.2,1.6,1.3,3.5,2.9,3.9C304.6,386.2,306.1,378.1,305.6,373.8z"/>
	<path class="st11" d="M292.3,362.3c-1.9-0.5-3.6,0.6-4.2,2.4c-0.3,0.9-0.6,1.9-0.8,2.9c-0.1,0.4-0.2,0.8-0.3,1.2
		c0.1-0.4-0.3,2.2-0.1,1.2c-0.3,1.5,0.1,2.9,1.5,3.7c1.2,0.7,3,0.6,3.9-0.5c0.9-1,1.5-2,1.8-3.4c0.2-1.1,0.4-2.2,0.7-3.2
		C295.2,364.8,294.1,362.8,292.3,362.3z"/>
	<path class="st11" d="M56.6,212.1c-0.2-1.5-0.8-2.9-1.6-4.2c-1.4-2.3-5.5-1.5-5.3,1.4c0,0.8,0,1.2-0.1,2c0,0.1-0.1,0.2-0.1,0.3
		c0,0-0.1,0.1-0.2,0.3c-0.1,0.2-0.7,1.3-0.6,1.1c-1.5,1.8-1.8,4.4,0,6.2c1.9,1.9,5.6,1.7,6.8-0.9C56.5,216.2,56.9,214.4,56.6,212.1z
		"/>
	<path class="st11" d="M60.6,222.9c0-0.1,0-0.1,0-0.2c-0.2-3.7-5.5-3.7-5.7,0c0,0.1,0,0.1,0,0.2c-0.5,0.8-0.8,1.9-0.6,3
		c0,0.3,0.1,0.6,0.1,0.9c0.2,1.2,1.2,2,2.3,2.3c0.1,0,0.1,0.1,0.1,0.1c0.3,0.1,0.6,0.1,0.9,0.1c0.3,0,0.6,0,0.9-0.1
		c0.1,0,0.1-0.1,0.1-0.1c1.1-0.3,2.1-1.2,2.3-2.3c0-0.3,0.1-0.6,0.1-0.9C61.3,224.8,61.1,223.7,60.6,222.9z"/>
	<path class="st11" d="M63.4,206.7c-1.3-2.2-5-0.7-4.1,1.7c0.1,0.4,0.2,0.8,0.3,1.3c0,0.1,0,0.3-0.1,0.4c0,0.1,0,0.1-0.1,0.2
		c-1.2,1.4-1.1,3.5,0.6,4.5c1.5,0.9,3.9,0.1,4.3-1.7C64.6,210.8,64.6,208.8,63.4,206.7z"/>
	<path class="st11" d="M242.5,140.4c-0.1-2.2-0.9-4-2.7-5.3c-0.7-0.5-1.6-0.4-2.4,0c-1.6,0.8-2.6,2.4-3.2,4.1
		c-0.5,1.6-1.2,3.2-1.1,4.9c0.1,2.2,1.4,4,3.5,4.6c0.9,0.3,1.7,0.2,2.5,0c2.3-0.6,3.2-2.5,3.5-4.6
		C242.8,142.9,242.6,141.6,242.5,140.4z"/>
	<path class="st11" d="M232.6,153.1c-1.3-0.4-3.2,0.4-3.4,1.9c-0.1,0.9-0.4,1.8-1,2.4c-0.8,0.8-1.2,2.1-0.9,3.3
		c0,0.1,0.1,0.2,0.1,0.3c0.5,1.5,2.2,2.8,3.8,2.2c0.1,0,0.2-0.1,0.3-0.1c1-0.4,2.2-1.2,2.4-2.4c0.2-1.6,0.9-3.2,0.8-5
		C234.6,154.5,233.8,153.4,232.6,153.1z"/>
	<path class="st11" d="M225,141.1c-1.2-1.2-2.8-1-4,0c-1.5,1.2-2.1,3.2-1.7,5.1c0.7,3,5.2,2.9,5.9,0c0.1-0.4,0.2-0.9,0.2-1.4
		c0-0.1,0-0.1,0-0.2c0,0,0,0,0-0.1C226.1,143.5,225.9,142,225,141.1z"/>
	<g>
		<path class="st11" d="M45.7,91.1C45.7,90.9,45.3,91.5,45.7,91.1L45.7,91.1z"/>
		<path class="st11" d="M53.4,91.4c-0.5-1.7-2.1-3-3.9-3c-1.7,0-2.9,1-3.6,2.5c0,0,0,0,0.1-0.1c0,0-0.1,0.1-0.1,0.1
			c-0.1,0.2-0.2,0.3-0.2,0.5c0.1-0.1,0.1-0.2,0.1-0.3c-0.3,0.4-0.6,0.7-0.8,1.2c-0.5,0.9-0.9,1.8-1.1,2.8c-0.4,1.9,0.2,3.9,2,4.9
			c1.6,1,4,0.7,5.3-0.7c1-1,2.1-2.3,2.4-3.7C53.9,94.2,53.8,92.8,53.4,91.4z"/>
		<path class="st11" d="M45.9,90.9c-0.1,0.1-0.1,0.1-0.2,0.2c0,0,0,0,0,0C45.8,91.1,45.8,91,45.9,90.9
			C45.9,90.9,45.9,90.9,45.9,90.9z"/>
	</g>
	<path class="st11" d="M55.9,110.6c-0.1-0.4-0.3-0.9-0.5-1.2c0,0,0-0.1-0.1-0.1c-0.1-0.2-0.4-0.8-0.5-1c0.3,0.6-0.2-0.6-0.2-0.8
		c-0.1-0.5-0.2-1-0.3-1.5c-0.5-2.5-4.7-2.5-5.1,0c-0.1,0.5-0.2,1-0.2,1.5c0,0.1-0.1,0.7-0.1,0.9c-0.1,0.3-0.1,0.6-0.2,1
		c-0.4,2.6,0.3,4.9,3,5.9c1.1,0.4,2.6-0.1,3.4-0.9c0.9-0.9,1.1-2.2,0.9-3.4C56,111.9,56,111.8,55.9,110.6z"/>
	<path class="st11" d="M64.7,100.5c-0.3-0.7-0.5-1.3-0.7-2c-0.7-2.6-4.5-2.6-5.2,0c-0.2,0.7-0.4,1.4-0.7,2c-0.8,2.1,1.2,4.3,3.3,4.3
		C63.5,104.8,65.5,102.6,64.7,100.5z"/>
	<path class="st12" d="M23,78.4c-0.3-1.8-0.6-3.6-1-5.4c-0.6-3-5.4-3-6.1,0c-0.4,1.8-0.7,3.6-1,5.4c-0.2,1.3-0.6,2.8-0.3,4.1
		c0.5,1.9,2.3,3.4,4.3,3.4c2,0,3.7-1.5,4.3-3.4C23.6,81.2,23.2,79.8,23,78.4z"/>
	<path class="st12" d="M21.3,54.4c-0.5-3-5.6-3-6.1,0c-0.4,2.5-1.4,5.5,0.2,7.7c1.5,2.1,4.2,2.1,5.8,0C22.8,60,21.7,56.9,21.3,54.4z
		"/>
	<path class="st12" d="M31.9,63c-0.3-1.4-0.7-2.7-1.4-4c-0.7-1.4-2.7-1.8-4.1-1.1c-1.5,0.9-1.7,2.6-1.1,4.1c0.1,0.2,0.1,0.4,0.2,0.6
		c0,0.1,0,0.3-0.1,0.4c-0.4,2.1,0.9,4.2,3.2,4.2C30.9,67.1,32.3,65,31.9,63z"/>
	<path class="st12" d="M302.6,76.3c-0.7-2.3-1.8-4.4-2.1-6.8c-0.1-1-1.4-1.8-2.3-1.8c-1.4,0-2.3,1.1-2.4,2.4
		c-0.3,2.5-0.1,5.5,0.7,7.9C297.6,82,303.8,80.3,302.6,76.3z"/>
	<path class="st12" d="M298.9,98.4c-0.4-1.7-0.9-3.3-1.8-4.8c-1.4-2.1-4.8-0.8-4.1,1.7c0.3,1.1,0.1,2-0.1,3c-0.4,2,0.9,4,3,4
		C298,102.3,299.4,100.3,298.9,98.4z"/>
	<path class="st12" d="M288.2,81.6c0.3,0.4,0.2,0.2,0.1-0.2c0,0.1,0-0.7,0-0.9c0-3.6-5.6-3.6-5.6,0c0,1.9,0.3,3.5,1.6,5
		c1,1.2,2.9,1,3.9,0C289.3,84.4,289.2,82.7,288.2,81.6z"/>
</g>
</svg>
