<?xml version="1.0" encoding="utf-8"?>
<!-- Generator: Adobe Illustrator 21.1.0, SVG Export Plug-In . SVG Version: 6.00 Build 0)  -->
<svg version="1.1" id="Layer_1" xmlns="http://www.w3.org/2000/svg" xmlns:xlink="http://www.w3.org/1999/xlink" x="0px" y="0px"
	 viewBox="0 0 335 466" style="enable-background:new 0 0 335 466;" xml:space="preserve">
<style type="text/css">
	.st0{fill:#D7482F;}
	.st1{fill:#422F1E;}
	.st2{fill:#E0BA92;}
	.st3{fill:#AA7566;}
	.st4{fill:#1E120D;}
	.st5{fill:#8B6137;}
	.st6{fill:#0E0600;}
	.st7{fill:#221000;}
	.st8{fill:#FFE36F;}
	.st9{fill:#FFFFFF;}
	.st10{fill:#F19800;}
	.st11{fill:#D3A67F;}
	.st12{fill:#5D4432;}
</style>
<g>
	<g id="XMLID_2_">
		<g>
			<path class="st0" d="M56.6,189.6c-0.8-0.5-1.3-0.9-1.7-1.3c-9.4-10.2-1.4-23.2-1.4-23.2c2.1,1.5,4.6,2.9,7.4,4.4
				c24.6,13.2,74.6,28.1,116.3,30.3c18.4,1,35.1-0.6,47.5-5.8l0.1,0.2c0,0,2,7.4-2.3,15c-1.2,2.1-2.9,4.3-5.3,6.3
				C197,232.4,74.6,201.2,56.6,189.6C56.6,189.6,56.6,189.6,56.6,189.6z"/>
			<path class="st1" d="M234.8,459.3c1.1,0.3,1.9,1.4,1.6,2.5c-0.3,1.1-1.4,1.7-2.6,1.5c-1.2-0.3-1.9-1.4-1.6-2.5
				C232.4,459.7,233.6,459,234.8,459.3z"/>
			<path class="st1" d="M241.2,452.9c1.7,0.4,2.7,2,2.3,3.6c-0.4,1.6-2,2.5-3.7,2.1s-2.7-2-2.3-3.6
				C237.9,453.5,239.6,452.5,241.2,452.9z"/>
			<path class="st1" d="M239.8,444.9c1.7,0.4,2.7,2,2.3,3.6c-0.4,1.6-2.1,2.5-3.7,2.1c-1.7-0.4-2.7-2-2.3-3.6
				C236.5,445.5,238.2,444.5,239.8,444.9z"/>
			<path class="st1" d="M220.5,437.9c10,3.9,16.4,11.3,14.4,16.5c-2,5.3-11.8,6.4-21.7,2.6c-10-3.9-16.4-11.3-14.4-16.5
				C200.8,435.2,210.5,434.1,220.5,437.9z"/>
			<path class="st1" d="M175.3,450.8l0.1,0.2c-14.7,5.4-41,4.9-44.5-2.3c-3.2-6.7,4.1-13.7,8.9-17.4
				C144.7,432,170.3,436.2,175.3,450.8z"/>
			<path class="st1" d="M73.5,447.9c-12.4,2.7-27.2,2.5-29.7-3.5c-2.7-6.7,1.7-12.4,5.4-15.7C52.6,429.1,67.9,431.9,73.5,447.9z"/>
			<path class="st2" d="M306.3,303.3c-6.2-0.4-12.6-3.1-16.9-7.5c-1.5-3-3.2-5.9-5-8.7c-0.5-2-0.7-4.2-0.4-6.5
				c2.3-19.9,22.4-24,37.5-11.9c20.6,16.5,10.4,38.9,3,49.7c-7.4,10.8-20.6,17.9-20.6,17.9l-0.2,0.3c-1.5-1-3.1-1.7-4.7-2.3l0.1-0.2
				c0.4-6.7-0.5-13.5-2.3-20C297.3,314.1,305,312,306.3,303.3z M309.3,287.7l0-0.5c0,0,1.1-9-4.5-9.6c-4.9-0.6-9.5,6,0.2,9.4
				C306.7,287.5,308.2,287.7,309.3,287.7z"/>
			<path class="st2" d="M143.7,428.6c-20.1-3.5-36.2-10.4-48.8-19.6c-1.7,14.7-3.5,26-3.7,29.4c-0.2,3.9-8.3,7.5-17.7,9.5
				c-5.5-16.1-20.9-18.8-24.3-19.3c2.1-1.9,4-3.1,4-3.1s-10.7-12.8-21.8-87.5c-10.9-73.5,24-146.1,25.2-148.5
				c18,11.6,140.4,42.8,160.5,26c2.4-2,4.1-4.2,5.3-6.3l0.6,0.4c0,0,20.9,15.4,21.3,32.4c0,0,23.7,19.1,39.9,45.1
				c0.8,3.4,2.6,6.3,5,8.7c3.1,5.9,5.7,12.1,7.4,18.4c1.8,6.6,2.7,13.3,2.3,20l-0.1,0.2c1.5,0.6,3.1,1.3,4.7,2.3
				c6.4,4,12.3,11.9,12.9,27c1.3,34.1-69.1,85.8-69.1,85.8s6.4,16.2-19.2,17.1c-25.6,0.8-40.5-20.5-35-32.9l-6.3,1.7
				c-0.9,3.2-1.6,5.6-1.9,7.3c-0.6,3.5-4.4,6.3-9.8,8.3l-0.1-0.2c-5-14.6-30.6-18.8-35.5-19.5C142,429.6,143.7,428.6,143.7,428.6z
				 M243.6,456.5c0.4-1.6-0.6-3.2-2.3-3.6c-1.7-0.4-3.3,0.6-3.7,2.1c-0.4,1.6,0.6,3.2,2.3,3.6S243.2,458.1,243.6,456.5z
				 M242.2,448.5c0.4-1.6-0.7-3.2-2.3-3.6c-1.7-0.4-3.3,0.6-3.7,2.1c-0.4,1.6,0.7,3.2,2.3,3.6C240.1,451.1,241.8,450.1,242.2,448.5z
				 M236.4,461.8c0.2-1.1-0.5-2.2-1.6-2.5c-1.2-0.3-2.3,0.4-2.6,1.5c-0.3,1.1,0.4,2.2,1.6,2.5C234.9,463.5,236.1,462.9,236.4,461.8z
				 M234.9,454.5c2.1-5.3-4.4-12.7-14.4-16.5c-10-3.8-19.7-2.7-21.7,2.6c-2,5.3,4.4,12.7,14.4,16.5
				C223.1,460.9,232.8,459.8,234.9,454.5z"/>
			<path class="st1" d="M315.8,85.4c3.6,38-38.7,78.5-50.1,77.4c-5.7-0.6-6.8-25.6-6.8-25.6l-0.5-0.1c7.5-39.4,0.3-85.7-25.1-100.7
				C233.3,36.5,311.9,43.3,315.8,85.4z"/>
			<path class="st2" d="M233.3,36.5c25.5,15,32.6,61.2,25.1,100.7c-3.5,18.3-10.1,35.2-19.4,46.7c-3.5,4.4-8.4,7.7-14.3,10.2
				c-12.3,5.2-29.1,6.7-47.5,5.8l0-0.4c11.9-17.9,18.8-56.9,5.7-83.6c-10.8-22.1-46.4-43-80.8-23.6c-32.8,18.4-40.5,72.2-41.2,77.3
				c-2.8-1.5-5.3-3-7.4-4.4c-26.7-18.3-24.1-53.6-22.3-65.4c0,0,0,0,0,0c11.4-29.9,30-88.8,78.7-91.6
				C109.8,8.1,182.1,6.3,233.3,36.5z"/>
			<path class="st1" d="M183,115.9c13.1,26.8,6.3,65.7-5.7,83.6l0,0.4c-41.7-2.2-91.7-17.2-116.3-30.3c0.7-5.1,8.4-58.9,41.2-77.3
				C136.6,72.9,172.1,93.8,183,115.9z"/>
			<path class="st1" d="M31.2,99.6C31.2,99.6,31.1,99.7,31.2,99.6c-4.6,12.1-8.1,19.5-11.8,16.5c-13.1-10.2-26.7-79.7-5.7-103
				s96.2-5.1,96.2-5.1C61.2,10.9,42.6,69.7,31.2,99.6z"/>
		</g>
		<g>
			<g>
				<path class="st3" d="M175.2,450.6c2.9-1.1,5.8-2.5,7.8-4.8c0.5-0.6,0.9-1.2,1.2-1.9c0.3-0.7,0.4-1.4,0.5-2.2
					c0.3-1.6,0.7-3.1,1.1-4.7c1.7-6.1,3.6-12.1,5.4-18.2c3.6-12.1,6.8-24.3,9.4-36.7c2.7-12.3,4.7-24.8,5.8-37.4
					c0.2-3.1,0.5-6.3,0.6-9.4c0.1-3.2,0.2-6.3,0.2-9.5c-0.1-3.2-0.1-6.3-0.2-9.5l-0.7-9.4l0,0c0-0.2,0.1-0.4,0.4-0.4
					c0.2,0,0.4,0.1,0.4,0.4l0.8,9.5c0.1,3.2,0.2,6.3,0.3,9.5c0,3.2-0.1,6.3-0.2,9.5c-0.1,3.2-0.4,6.3-0.6,9.5
					c-1,12.6-3,25.2-5.6,37.6c-2.7,12.4-6,24.6-9.7,36.7c-1.8,6.1-3.7,12.1-5.5,18.1c-0.4,1.5-0.9,3-1.2,4.5
					c-0.1,0.7-0.3,1.6-0.6,2.4c-0.3,0.8-0.8,1.5-1.4,2.1c-2.3,2.5-5.3,3.8-8.3,4.9c-0.2,0.1-0.4,0-0.5-0.2
					C174.9,450.9,175,450.7,175.2,450.6L175.2,450.6z"/>
			</g>
			<g>
				<path class="st3" d="M144.5,324.9c-0.4,4.3-0.8,8.6-1.1,12.9c-0.3,4.3-0.6,8.6-0.9,13c-0.5,8.6-0.9,17.3-1.1,25.9
					c-0.2,8.7-0.3,17.3,0.1,26c0.4,8.6,1,17.3,2.5,25.8l0,0c0,0.2-0.1,0.4-0.2,0.5c-1.3,0.8-2.6,1.7-3.9,2.6
					c-0.2,0.1-0.4,0.1-0.6-0.1c-0.1-0.2-0.1-0.4,0.1-0.5c1.3-1,2.6-1.9,3.9-2.7l-0.2,0.5c-1.8-8.5-2.5-17.2-3-25.9
					c-0.4-8.7-0.4-17.4-0.2-26c0.2-8.7,0.6-17.3,1.3-26c0.6-8.7,1.4-17.3,2.5-25.9c0-0.2,0.2-0.4,0.4-0.3
					C144.4,324.5,144.5,324.7,144.5,324.9z"/>
			</g>
			<g>
				<path class="st3" d="M223.3,209.3c2.7,2,5.2,4.2,7.6,6.6c2.4,2.4,4.6,4.8,6.6,7.6c2,2.7,3.8,5.6,5.1,8.7
					c1.4,3.1,2.2,6.5,2.4,9.9l-0.2-0.5c7.1,5.9,13.8,12.4,20.1,19.1c3.1,3.4,6.2,6.9,9,10.5c1.5,1.8,2.8,3.7,4.2,5.5
					c1.4,1.9,2.7,3.8,4,5.7c5.2,7.7,9.6,15.9,12.9,24.6c3.2,8.7,5,18,4.5,27.3c0,0.2-0.2,0.4-0.4,0.4c-0.2,0-0.4-0.2-0.4-0.4
					c0.4-9.2-1.6-18.3-4.8-26.8c-3.3-8.6-7.7-16.6-12.9-24.2c-5.1-7.6-11-14.7-17.2-21.5c-6.2-6.8-12.8-13.2-19.8-19.1l0,0
					c-0.1-0.1-0.2-0.3-0.2-0.5c-0.1-3.2-0.9-6.4-2.2-9.4c-1.3-3-3-5.8-4.9-8.5c-1.9-2.7-4.1-5.2-6.4-7.5c-2.3-2.4-4.8-4.6-7.4-6.6
					l0,0c-0.2-0.1-0.2-0.4-0.1-0.6C222.9,209.2,223.1,209.2,223.3,209.3z"/>
			</g>
			<g>
				<path class="st3" d="M247.2,449.2c5.4-4.1,10.6-8.4,15.7-12.7c5.1-4.4,10.2-8.9,15-13.5c9.7-9.3,19-19.2,26.7-30.2
					c3.8-5.5,7.3-11.3,9.4-17.6c0.6-1.6,0.9-3.2,1.3-4.8c0.2-1.6,0.6-3.3,0.5-4.9c0.1-1.6,0-3.3-0.2-5c-0.2-1.7-0.4-3.3-0.7-4.9
					c-0.7-3.3-1.7-6.4-3.3-9.3c-0.8-1.5-1.7-2.8-2.8-4.1c-1.1-1.3-2.3-2.4-3.5-3.4c-5.2-4.2-12-6-18.6-5.7l0,0
					c-0.2,0-0.4-0.2-0.4-0.4c0-0.2,0.2-0.4,0.4-0.4c3.5-0.3,6.9,0.1,10.2,1c3.3,0.9,6.5,2.4,9.2,4.5c1.4,1.1,2.6,2.3,3.7,3.6
					c1.1,1.3,2.1,2.8,2.9,4.3c1.7,3,2.8,6.3,3.5,9.7c0.4,1.7,0.6,3.4,0.8,5.1c0.2,1.7,0.3,3.4,0.2,5.1c0,1.7-0.3,3.4-0.5,5.1
					c-0.4,1.7-0.8,3.4-1.4,5c-2.2,6.5-5.6,12.5-9.5,18c-3.9,5.6-8.2,10.8-12.7,15.8c-4.5,5-9.3,9.8-14.3,14.4
					c-4.9,4.6-10,9.1-15.2,13.5c-5.2,4.3-10.5,8.5-16,12.5c-0.2,0.1-0.4,0.1-0.6-0.1C247,449.6,247,449.3,247.2,449.2L247.2,449.2z"
					/>
			</g>
			<g>
				<path class="st3" d="M240.5,363.5l-23.9,34.9c-4,5.8-8,11.7-11.9,17.5c-2,2.9-3.9,5.9-5.8,8.9c-1,1.5-1.9,3-2.8,4.5
					c-0.9,1.5-1.7,3-2.6,4.6l0,0c-0.1,0.2-0.3,0.3-0.5,0.2c-0.2-0.1-0.3-0.3-0.2-0.5c3.1-6.4,6.9-12.4,10.7-18.3
					c3.8-6,7.8-11.8,11.7-17.6c4-5.8,8-11.6,12.1-17.4l6.2-8.6l6.3-8.5c0.1-0.2,0.4-0.2,0.6-0.1
					C240.6,363.1,240.6,363.4,240.5,363.5z"/>
			</g>
			<g>
				<path class="st3" d="M214.5,430.8c3.4-0.5,6.7,0,10,0.8c3.2,0.8,6.3,2.2,9.2,3.9c1.4,0.9,2.8,1.8,4.1,2.9c0.6,0.5,1.3,1,1.9,1.6
					l1.8,1.7c0.6,0.6,1.2,1.2,1.7,1.8l1.6,1.9c1,1.3,2,2.7,2.9,4c0.1,0.2,0.1,0.4-0.1,0.6c-0.2,0.1-0.4,0.1-0.5-0.1l0,0
					c-1.1-1.2-2.1-2.5-3.1-3.7l-1.7-1.8c-0.6-0.6-1.1-1.2-1.7-1.7l-1.8-1.6c-0.6-0.6-1.3-1-1.9-1.5c-1.2-1-2.6-1.8-4-2.7
					c-2.8-1.6-5.7-3-8.8-3.9c-3.1-0.9-6.3-1.4-9.5-1.3l0,0c-0.2,0-0.4-0.2-0.4-0.4C214.1,431,214.3,430.8,214.5,430.8z"/>
			</g>
			<g>
				<path class="st3" d="M55.3,243.5c-2.1,9.4-3.4,19.1-4.4,28.7c-0.9,9.6-1.4,19.3-1.3,29c0.3,19.3,2.9,38.8,9.4,57
					c3.2,9.1,7.4,17.9,12.8,25.9c5.4,8,11.9,15.2,19.4,21.3c7.4,6.2,15.9,11,24.8,14.8c8.9,3.8,18.3,6.4,27.8,8.1
					c0.2,0,0.4,0.2,0.3,0.5c0,0.2-0.2,0.4-0.5,0.3c-9.6-1.6-19.1-4.1-28.1-7.8c-9-3.7-17.6-8.6-25.1-14.8
					c-7.6-6.1-14.3-13.4-19.7-21.5c-5.5-8.1-9.8-16.9-13.1-26.1c-6.5-18.4-9-38-9.3-57.5c-0.1-19.5,1.8-38.9,6.1-57.9
					c0-0.2,0.3-0.3,0.5-0.3C55.2,243,55.3,243.2,55.3,243.5L55.3,243.5z"/>
			</g>
			<g>
				<path class="st3" d="M296.7,313.8L296.7,313.8L296.7,313.8c1.1-0.5,2.1-1.1,3.2-1.7c1-0.7,1.9-1.5,2.7-2.4c0.8-0.9,1.5-1.9,2-3
					c0.6-1.1,0.9-2.3,1.3-3.5l0-0.1c0,0,0,0,0-0.1l0.2-0.2c0.1-0.1,0.3-0.1,0.4,0c0.1,0.1,0.1,0.2,0.1,0.2c0,0.1,0,0.2,0,0.3l0-0.1
					c-0.1,1.3-0.3,2.6-0.9,3.9c-0.2,0.6-0.6,1.2-0.9,1.8c-0.4,0.6-0.8,1.1-1.2,1.6c-0.9,1-2,1.9-3.1,2.5c-1.2,0.7-2.4,1.2-3.7,1.4
					l-0.1,0l0,0l0,0c-0.2,0-0.4-0.2-0.4-0.4C296.4,314,296.5,313.8,296.7,313.8z"/>
			</g>
			<g>
				<path class="st3" d="M303.7,336.1c4.5-2.6,8.7-5.7,12.5-9.1c3.8-3.5,7.2-7.4,9.8-11.9c2.6-4.4,4.7-9.2,6-14.2
					c1.2-5,1.4-10.2,0.2-15.2c-1.2-5-4-9.5-7.5-13.1c-3.6-3.6-7.9-6.7-12.7-8.4c-4.8-1.7-10.1-2.1-14.9-0.4
					c-2.4,0.8-4.6,2.1-6.3,3.9c-1.8,1.7-3.2,3.9-4.2,6.2c-1,2.3-1.6,4.8-1.8,7.3c-0.3,2.5,0,5,0.9,7.4c0.8,2.4,2.2,4.5,3.9,6.4
					c1.7,1.8,3.8,3.4,6,4.6c4.5,2.4,9.6,3.6,14.7,3.2c2.5-0.2,5-0.9,7.2-2c1.1-0.6,2.1-1.3,3.1-2.1l0.7-0.7l0.6-0.7
					c0.4-0.5,0.8-1,1.1-1.5c1.4-2.1,2-4.6,1.9-7.1c-0.1-1.2-0.4-2.4-0.9-3.6c-0.5-1.1-1.3-2.1-2.2-2.7c-1-0.6-2.2-0.7-3.2-0.2
					c-1,0.5-1.9,1.4-2.7,2.4c-0.9,1-1.8,2-3,2.7c-1.2,0.8-2.7,1-4.1,1c-1.4-0.1-2.7-0.4-4-0.9c-1.2-0.5-2.5-1-3.6-1.9
					c-1.1-0.8-2.1-2.1-2.2-3.6c-0.1-0.4,0-0.7,0.1-1.1c0.1-0.4,0.2-0.7,0.4-1c0.4-0.6,0.9-1.2,1.5-1.6c1.2-0.8,2.6-1.2,4-1l1,0.2
					c0.3,0.2,0.7,0.3,1,0.5c0.6,0.4,1.1,0.9,1.5,1.5c0.8,1.2,1.1,2.5,1.3,3.9c0.2,1.3,0.2,2.7,0,4c0,0.2-0.2,0.4-0.4,0.4
					c-0.2,0-0.4-0.2-0.4-0.4l0,0c0.1-1.2,0.1-2.6-0.1-3.8c-0.2-1.2-0.5-2.5-1.2-3.5c-0.6-1-1.7-1.7-2.9-1.8
					c-1.2-0.1-2.4,0.2-3.4,0.9c-1,0.7-1.6,1.8-1.5,2.9c0.1,1.1,0.9,2.1,1.8,2.8c0.9,0.8,2.1,1.3,3.3,1.7c1.2,0.4,2.4,0.7,3.6,0.8
					c1.2,0,2.4-0.2,3.4-0.9c1-0.6,1.9-1.5,2.7-2.5c0.9-1,1.7-2.1,3.1-2.7c1.4-0.7,3-0.5,4.3,0.3c1.3,0.8,2.1,1.9,2.7,3.2
					c0.6,1.3,0.9,2.6,1,4c0.1,2.7-0.5,5.5-2,7.8c-0.4,0.6-0.7,1.2-1.2,1.6l-0.7,0.8l-0.7,0.7c-1,0.9-2.1,1.7-3.3,2.3
					c-2.4,1.3-5.1,2-7.7,2.2c-5.3,0.5-10.8-0.8-15.5-3.3c-2.3-1.3-4.5-2.9-6.4-4.8c-1.8-2-3.3-4.3-4.2-6.9c-0.9-2.5-1.2-5.3-1-8
					c0.3-2.7,0.9-5.3,1.9-7.8c1-2.5,2.6-4.8,4.5-6.7c1.9-1.9,4.4-3.3,6.9-4.2c5.2-1.8,10.8-1.3,15.8,0.5c5.1,1.8,9.5,5,13.2,8.7
					c3.7,3.8,6.6,8.5,7.8,13.7c1.3,5.2,1,10.7-0.2,15.8c-1.3,5.1-3.4,10-6.1,14.5c-2.7,4.5-6.2,8.6-10.1,12.1
					c-4,3.5-8.2,6.5-12.8,9.1c-0.2,0.1-0.4,0-0.5-0.2C303.4,336.4,303.5,336.2,303.7,336.1L303.7,336.1z"/>
			</g>
		</g>
	</g>
	<ellipse class="st4" cx="79.7" cy="82.9" rx="9.4" ry="9.4"/>
	<circle class="st4" cx="203.4" cy="111.9" r="9.4"/>
	<g>
		<path class="st5" d="M100.9,45.4c4.3-1.5,8.8-2.9,13.3-3.7c4.6-0.8,9.3-1.1,13.9-0.4c2.3,0.4,4.6,1,6.7,1.9c2.1,1,4.2,2.1,6.1,3.5
			c3.8,2.7,7.2,5.8,10.8,8.7c1.8,1.5,3.6,2.9,5.5,4.1c1.9,1.2,4,2.2,6.1,2.8c2.2,0.6,4.4,0.6,6.7,0.3c2.2-0.3,4.5-0.9,6.7-1.5
			c4.4-1.2,9.1-2.4,13.8-1.7c2.3,0.3,4.6,1.2,6.5,2.5c2,1.3,3.7,2.9,5.2,4.6c0.1,0.1,0.1,0.3,0,0.4c-0.1,0.1-0.3,0.1-0.4,0
			c-3-3.4-6.9-6.2-11.5-6.7c-4.5-0.7-9,0.5-13.4,1.7c-2.2,0.6-4.5,1.2-6.8,1.5c-1.2,0.2-2.3,0.3-3.5,0.3c-1.2,0-2.4-0.2-3.5-0.5
			c-2.3-0.6-4.5-1.6-6.4-2.8c-2-1.2-3.8-2.6-5.6-4.1c-3.6-2.9-6.9-6.1-10.7-8.7c-1.8-1.3-3.8-2.5-5.9-3.4c-2.1-0.9-4.3-1.5-6.5-1.9
			c-4.5-0.7-9.1-0.5-13.6,0.3c-4.5,0.7-8.9,2-13.3,3.5c-0.1,0-0.3,0-0.3-0.2C100.7,45.6,100.8,45.4,100.9,45.4L100.9,45.4z"/>
	</g>
	<g>
		<path class="st5" d="M126,30.9c3.3-1,6.8-1.4,10.2-1.3c3.4,0,6.9,0.7,10.1,2l1.2,0.5c0.4,0.2,0.8,0.4,1.2,0.6l1.1,0.6l1.1,0.7
			l1.1,0.7l1,0.8c0.7,0.5,1.3,1.1,2,1.7c2.6,2.3,4.9,4.8,7.1,7.4c1.1,1.3,2.2,2.6,3.5,3.6c1.3,1,2.9,1.5,4.5,1.7
			c0.8,0.1,1.7,0.1,2.5,0.1c0.8-0.1,1.7-0.1,2.5-0.2c1.7-0.2,3.3-0.5,5-0.8c3.3-0.7,6.7-1.4,10.1-1.6c3.4-0.2,7,0.4,10,2.4
			c0.1,0.1,0.2,0.2,0.1,0.4c-0.1,0.1-0.2,0.2-0.4,0.1l0,0c-2.9-1.8-6.3-2.3-9.6-2.1c-3.4,0.2-6.7,1-10,1.7c-1.7,0.3-3.4,0.7-5.1,0.9
			c-0.8,0.1-1.7,0.2-2.6,0.2c-0.9,0-1.7,0-2.6-0.1c-1.7-0.1-3.5-0.7-5-1.8c-1.4-1.1-2.6-2.4-3.7-3.7c-2.2-2.6-4.5-5.1-7-7.3
			c-2.5-2.3-5.2-4.4-8.3-5.6c-3.1-1.3-6.4-1.9-9.8-2c-3.4-0.1-6.8,0.2-10,1.1l0,0c-0.1,0-0.3,0-0.3-0.2
			C125.8,31,125.8,30.9,126,30.9z"/>
	</g>
	<g>
		<path class="st6" d="M133.1,120.8c-0.4,4-1.1,8-1.9,11.9c-0.4,2-0.8,3.9-1.3,5.9l-0.7,2.9l-0.7,2.8l0,0.1
			c-0.1,0.3-0.4,0.4-0.6,0.4c-0.2-0.1-0.4-0.3-0.4-0.5c0-0.6,0.1-1.1,0.1-1.6l0.2-1.5c0.1-1,0.3-2,0.4-3c0.3-2,0.7-4,1-5.9
			c0.8-3.9,1.6-7.9,2.8-11.7c0.1-0.3,0.4-0.4,0.7-0.4C133,120.4,133.1,120.6,133.1,120.8z"/>
	</g>
	<g>
		<path class="st6" d="M170.8,146.8c-3.7,0.6-7.4,0.9-11.1,1.2c-3.7,0.2-7.4,0.2-11.1,0.1c-7.4-0.3-14.8-1.2-22.1-2.8
			c-7.3-1.6-14.4-3.9-21.2-6.8c-3.4-1.5-6.8-3.1-10.1-4.8c-3.3-1.8-6.5-3.7-9.5-5.7c-0.2-0.2-0.3-0.5-0.1-0.7
			c0.2-0.2,0.5-0.3,0.7-0.2c6.3,3.8,12.9,7.1,19.7,9.8c6.8,2.7,13.8,4.9,21,6.5c7.1,1.6,14.4,2.6,21.8,3c7.3,0.4,14.7,0.2,22-0.5
			c0.3,0,0.5,0.2,0.6,0.5C171.3,146.5,171.1,146.8,170.8,146.8z"/>
	</g>
	<g>
		<path class="st7" d="M140.4,442.9c-0.7,0.5-1.4,1.1-1.9,1.8c-0.5,0.7-0.8,1.5-1,2.4c-0.2,0.8-0.2,1.7-0.2,2.6
			c0,0.4,0.1,0.9,0.1,1.3c0.1,0.4,0.1,0.9,0.2,1.4l0,0c0,0.1-0.1,0.3-0.2,0.3c-0.1,0-0.2-0.1-0.3-0.2c-0.2-0.4-0.3-0.9-0.4-1.4
			c-0.1-0.5-0.2-0.9-0.2-1.4c-0.1-1-0.1-2,0.2-2.9c0.2-1,0.7-1.9,1.3-2.7c0.6-0.8,1.4-1.4,2.4-1.8c0.1,0,0.3,0,0.3,0.2
			C140.6,442.7,140.5,442.9,140.4,442.9L140.4,442.9z"/>
	</g>
	<g>
		<path class="st7" d="M154.5,445.9c-0.4,0.6-0.8,1.4-1.1,2.1c-0.3,0.7-0.4,1.5-0.4,2.3c0,0.8,0.1,1.6,0.3,2.3
			c0.2,0.8,0.5,1.5,0.8,2.3l0,0c0.1,0.1,0,0.3-0.1,0.3c-0.1,0.1-0.2,0-0.3-0.1c-0.2-0.4-0.5-0.7-0.7-1.1c-0.2-0.4-0.4-0.8-0.5-1.2
			c-0.3-0.8-0.4-1.7-0.4-2.6c0-0.9,0.2-1.8,0.6-2.6c0.4-0.8,0.9-1.6,1.5-2.2c0.1-0.1,0.3-0.1,0.4,0
			C154.6,445.6,154.6,445.7,154.5,445.9L154.5,445.9z"/>
	</g>
	<g>
		<path class="st7" d="M51.3,437.3c-0.5,0.8-0.9,1.6-1.3,2.5c-0.4,0.8-0.6,1.7-0.8,2.6c-0.2,0.9-0.2,1.8,0,2.7
			c0.1,0.9,0.5,1.7,0.9,2.6l0,0c0.1,0.1,0,0.3-0.1,0.3c-0.1,0.1-0.2,0-0.3-0.1c-0.6-0.8-1.1-1.7-1.3-2.7c-0.2-1-0.2-2-0.1-3
			c0.2-1,0.5-1.9,1-2.8c0.5-0.9,1-1.7,1.7-2.4c0.1-0.1,0.3-0.1,0.4,0C51.3,437.1,51.3,437.2,51.3,437.3L51.3,437.3z"/>
	</g>
	<g>
		<path class="st7" d="M59,440.7c-0.2,0.7-0.3,1.4-0.3,2.1c0,0.7,0,1.4,0.2,2.1c0.1,0.7,0.4,1.4,0.7,2c0.3,0.7,0.7,1.3,1.1,1.9l0,0
			c0.1,0.1,0,0.3-0.1,0.4c-0.1,0.1-0.2,0.1-0.3,0c-0.3-0.3-0.6-0.6-0.8-0.9c-0.2-0.3-0.5-0.6-0.7-1c-0.4-0.7-0.7-1.5-0.9-2.3
			c-0.2-0.8-0.2-1.6-0.1-2.4c0.1-0.8,0.3-1.6,0.8-2.3c0.1-0.1,0.2-0.2,0.4-0.1C59,440.4,59,440.5,59,440.7L59,440.7z"/>
	</g>
	<g>
		<path class="st3" d="M242.1,245.5c-1.1,1.7-2.4,3.3-3.7,4.9c-1.3,1.6-2.7,3.1-4.1,4.5c-2.9,2.9-6,5.5-9.4,7.8
			c-0.1,0.1-0.3,0-0.4-0.1c-0.1-0.1-0.1-0.3,0.1-0.3l0,0c1.6-1.3,3.1-2.5,4.6-3.9c1.5-1.3,3-2.7,4.4-4.2c1.4-1.4,2.8-2.9,4.1-4.4
			c1.3-1.5,2.7-3,3.9-4.6l0,0c0.1-0.1,0.3-0.1,0.4,0C242.1,245.3,242.1,245.4,242.1,245.5z"/>
	</g>
	<path class="st8" d="M134.3,235.4l-30.7-8c0,0-2.8-12.8-11.9-10.2c-9.1,2.6-7.7,15.4-2,18.5c0,0-12.5,7.7-4.6,14.8
		c8,7.1,15.1-5.7,15.1-5.7l29,9.4c0,0,5.5,11.3,12.8,5.1c7.4-6.3-1.1-12.5-1.1-12.5s14.8-6.2,9.1-12.8
		C142.8,225.7,134.3,235.4,134.3,235.4z"/>
	<g>
		<path class="st3" d="M221.5,266.4c-0.3,0.3-0.7,0.6-1.1,0.9c-0.4,0.3-0.8,0.6-1.2,0.8c-0.8,0.5-1.6,1-2.5,1.4
			c-0.1,0.1-0.3,0-0.3-0.2c0-0.1,0-0.2,0.1-0.3c0.7-0.7,1.5-1.2,2.3-1.8c0.4-0.3,0.8-0.5,1.2-0.7c0.4-0.2,0.9-0.5,1.3-0.6
			c0.1-0.1,0.3,0,0.3,0.2C221.6,266.2,221.6,266.3,221.5,266.4z"/>
	</g>
	<path class="st4" d="M118.4,97.2c-5.2,1.7-6.8,15.7-0.6,21.5c6.2,5.7,23.2,10.9,31,6.7c10.1-5.5,10.6-17.1,7.8-19.5
		C152.7,102.4,129.2,93.7,118.4,97.2z"/>
	<path class="st9" d="M138.1,103.5c-1.8-1.3-4.4-1.4-6.5-1.9c-1.7-0.4-3.5-0.5-5.1,0.1c-0.3,0.1-0.5,0.4-0.3,0.7
		c0.9,1.6,2.2,2.2,3.8,3c1.9,1,4.8,2.1,7,2C139.2,107.3,139.8,104.7,138.1,103.5z"/>
	<g>
		<path class="st10" d="M125.1,191.5c-0.9,3.1-1.7,6.1-2.4,9.2c-0.3,1.6-0.6,3.1-0.7,4.7c-0.1,1.5-0.2,3.1,0.1,4.5
			c0,0.2,0,0.3,0,0.5l0,0c-0.5,2-1,4-1.5,6.1c-0.5,2-0.9,4.1-1.2,6.1c-0.4,2-0.7,4.1-0.9,6.2c-0.2,2-0.3,4.1,0.1,6l0,0
			c0.1,0.3-0.1,0.6-0.4,0.6c-0.3,0.1-0.5-0.1-0.6-0.3c-0.4-1.1-0.5-2.2-0.6-3.2c-0.1-1.1-0.1-2.2,0-3.2c0.1-2.1,0.3-4.2,0.6-6.3
			c0.3-2.1,0.7-4.2,1.1-6.2c0.4-2.1,0.9-4.1,1.4-6.2l0,0.5c-0.4-1.8-0.3-3.5-0.1-5.1c0.2-1.6,0.5-3.3,0.9-4.8
			c0.4-1.6,0.8-3.1,1.4-4.7c0.5-1.5,1.1-3.1,1.7-4.6c0.1-0.3,0.4-0.4,0.7-0.3C125.1,191,125.2,191.2,125.1,191.5L125.1,191.5z"/>
	</g>
	<path class="st11" d="M153.9,372.7c-0.3-1.8-0.3-3.6-0.4-5.4c-0.1-2.2-3.4-2.2-3.5,0c-0.1,1.8-0.1,3.6-0.4,5.4
		c-0.2,1.4,0.6,2.8,2.2,2.8C153.3,375.6,154.1,374.1,153.9,372.7z"/>
	<path class="st11" d="M156.7,380.2c-1.1-0.7-2.6-0.3-3.3,0.9c-0.8,1.4-1.7,2.6-2.3,4.1c-0.8,1.9,1.1,3.8,2.9,3.8
		c1.9,0,3.5-1.9,2.9-3.8c0-0.1,0-0.2-0.1-0.2c0.2-0.5,0.5-1,0.7-1.5C158.1,382.3,157.9,380.9,156.7,380.2z"/>
	<path class="st11" d="M162.1,371.2c0-0.3-0.2-0.8-0.2-0.8c-0.1-0.5-0.2-0.9-0.3-1.3c-0.6-1.8-2.7-1.6-3.4,0
		c-0.2,0.5-0.5,0.9-0.9,1.2c-0.8,0.4-1.4,1.1-1.5,2c0,0.1,0,0.2-0.1,0.4c-0.4,1.9,0.5,3.8,2.5,4.4c2.3,0.6,4.4-1.1,4.5-3.4
		c0-0.1,0-0.2,0-0.4C162.8,372.6,162.5,371.9,162.1,371.2z"/>
	<path class="st11" d="M304.2,353.6c-2.8-0.5-5.7,0-6.8,3c-0.2,0.7-0.3,1.5-0.2,2.3c-0.1,1.6,0.4,3.2,1.6,4.3
		c0.5,0.4,0.9,0.8,1.4,1.1c0.1,0.1,0.1,0.1,0.2,0.2c0.2,0.1,0.1,0.1,0-0.1c0.9,0.6,1.9,0.9,3.2,1c1.4,0.2,3.1-0.7,4.1-1.7
		c1.2-1.2,1.5-2.5,1.7-4.1C309.6,356.7,306.8,354.1,304.2,353.6z"/>
	<path class="st11" d="M306.6,374.1c-0.2-1.7-1-3.2-2.8-3.6c-1.8-0.5-4.3,0.6-4.6,2.6c-0.3,1.7-0.7,2.7-1.3,4.1
		c-0.3,0.6-0.7,1.2-0.9,1.9c-0.2,0.6-0.2,1.4-0.2,2c-0.2,1.6,1.3,3.5,2.9,3.9C305.6,386.4,307.1,378.3,306.6,374.1z"/>
	<path class="st11" d="M293.3,362.6c-1.9-0.5-3.6,0.6-4.2,2.4c-0.3,0.9-0.6,1.9-0.8,2.9c-0.1,0.4-0.2,0.8-0.3,1.2
		c0.1-0.4-0.3,2.2-0.1,1.2c-0.3,1.5,0.1,2.9,1.5,3.7c1.2,0.7,3,0.6,3.9-0.5c0.9-1,1.5-2,1.8-3.4c0.2-1.1,0.4-2.2,0.7-3.2
		C296.2,365,295.1,363.1,293.3,362.6z"/>
	<path class="st11" d="M57.6,212.3c-0.2-1.5-0.8-2.9-1.6-4.2c-1.4-2.3-5.5-1.5-5.3,1.4c0,0.8,0,1.2-0.1,2c0,0.1-0.1,0.2-0.1,0.3
		c0,0-0.1,0.1-0.2,0.3c-0.1,0.2-0.7,1.3-0.6,1.1c-1.5,1.8-1.8,4.4,0,6.2c1.9,1.9,5.6,1.7,6.8-0.9C57.5,216.4,57.9,214.6,57.6,212.3z
		"/>
	<path class="st11" d="M61.6,223.1c0-0.1,0-0.1,0-0.2c-0.2-3.7-5.5-3.7-5.7,0c0,0.1,0,0.1,0,0.2c-0.5,0.8-0.8,1.9-0.6,3
		c0,0.3,0.1,0.6,0.1,0.9c0.2,1.2,1.2,2,2.3,2.3c0.1,0,0.1,0.1,0.1,0.1c0.3,0.1,0.6,0.1,0.9,0.1c0.3,0,0.6,0,0.9-0.1
		c0.1,0,0.1-0.1,0.1-0.1c1.1-0.3,2.1-1.2,2.3-2.3c0-0.3,0.1-0.6,0.1-0.9C62.3,225.1,62.1,224,61.6,223.1z"/>
	<path class="st11" d="M64.4,206.9c-1.3-2.2-5-0.7-4.1,1.7c0.1,0.4,0.2,0.8,0.3,1.3c0,0.1,0,0.3-0.1,0.4c0,0.1,0,0.1-0.1,0.2
		c-1.2,1.4-1.1,3.5,0.6,4.5c1.5,0.9,3.9,0.1,4.3-1.7C65.6,211,65.6,209,64.4,206.9z"/>
	<path class="st11" d="M243.5,140.6c-0.1-2.2-0.9-4-2.7-5.3c-0.7-0.5-1.6-0.4-2.4,0c-1.6,0.8-2.6,2.4-3.2,4.1
		c-0.5,1.6-1.2,3.2-1.1,4.9c0.1,2.2,1.4,4,3.5,4.6c0.9,0.3,1.7,0.2,2.5,0c2.3-0.6,3.2-2.5,3.5-4.6
		C243.7,143.2,243.5,141.8,243.5,140.6z"/>
	<path class="st11" d="M233.6,153.3c-1.3-0.4-3.2,0.4-3.4,1.9c-0.1,0.9-0.4,1.8-1,2.4c-0.8,0.8-1.2,2.1-0.9,3.3
		c0,0.1,0.1,0.2,0.1,0.3c0.5,1.5,2.2,2.8,3.8,2.2c0.1,0,0.2-0.1,0.3-0.1c1-0.4,2.2-1.2,2.4-2.4c0.2-1.6,0.9-3.2,0.8-5
		C235.5,154.8,234.8,153.7,233.6,153.3z"/>
	<path class="st11" d="M225.9,141.3c-1.2-1.2-2.8-1-4,0c-1.5,1.2-2.1,3.2-1.7,5.1c0.7,3,5.2,2.9,5.9,0c0.1-0.4,0.2-0.9,0.2-1.4
		c0-0.1,0-0.1,0-0.2c0,0,0,0,0-0.1C227.1,143.7,226.8,142.2,225.9,141.3z"/>
	<g>
		<path class="st11" d="M46.7,91.3C46.7,91.1,46.3,91.7,46.7,91.3L46.7,91.3z"/>
		<path class="st11" d="M54.4,91.6c-0.5-1.7-2.1-3-3.9-3c-1.7,0-2.9,1-3.6,2.5c0,0,0,0,0.1-0.1c0,0-0.1,0.1-0.1,0.1
			c-0.1,0.2-0.2,0.3-0.2,0.5c0.1-0.1,0.1-0.2,0.1-0.3c-0.3,0.4-0.6,0.7-0.8,1.2c-0.5,0.9-0.9,1.8-1.1,2.8c-0.4,1.9,0.2,3.9,2,4.9
			c1.6,1,4,0.7,5.3-0.7c1-1,2.1-2.3,2.4-3.7C54.8,94.4,54.8,93,54.4,91.6z"/>
		<path class="st11" d="M46.9,91.2c-0.1,0.1-0.1,0.1-0.2,0.2c0,0,0,0,0,0C46.7,91.3,46.8,91.2,46.9,91.2
			C46.8,91.2,46.8,91.2,46.9,91.2z"/>
	</g>
	<path class="st11" d="M56.8,110.8c-0.1-0.4-0.3-0.9-0.5-1.2c0,0,0-0.1-0.1-0.1c-0.1-0.2-0.4-0.8-0.5-1c0.3,0.6-0.2-0.6-0.2-0.8
		c-0.1-0.5-0.2-1-0.3-1.5c-0.5-2.5-4.7-2.5-5.1,0c-0.1,0.5-0.2,1-0.2,1.5c0,0.1-0.1,0.7-0.1,0.9c-0.1,0.3-0.1,0.6-0.2,1
		c-0.4,2.6,0.3,4.9,3,5.9c1.1,0.4,2.6-0.1,3.4-0.9c0.9-0.9,1.1-2.2,0.9-3.4C57,112.1,57,112,56.8,110.8z"/>
	<path class="st11" d="M65.7,100.8c-0.3-0.7-0.5-1.3-0.7-2c-0.7-2.6-4.5-2.6-5.2,0c-0.2,0.7-0.4,1.4-0.7,2c-0.8,2.1,1.2,4.3,3.3,4.3
		C64.4,105,66.5,102.8,65.7,100.8z"/>
	<path class="st12" d="M24,78.7c-0.3-1.8-0.6-3.6-1-5.4c-0.6-3-5.4-3-6.1,0c-0.4,1.8-0.7,3.6-1,5.4c-0.2,1.3-0.6,2.8-0.3,4.1
		c0.5,1.9,2.3,3.4,4.3,3.4c2,0,3.7-1.5,4.3-3.4C24.6,81.5,24.2,80,24,78.7z"/>
	<path class="st12" d="M22.3,54.7c-0.5-3-5.6-3-6.1,0c-0.4,2.5-1.4,5.5,0.2,7.7c1.5,2.1,4.2,2.1,5.8,0
		C23.7,60.2,22.7,57.2,22.3,54.7z"/>
	<path class="st12" d="M32.8,63.2c-0.3-1.4-0.7-2.7-1.4-4c-0.7-1.4-2.7-1.8-4.1-1.1c-1.5,0.9-1.7,2.6-1.1,4.1
		c0.1,0.2,0.1,0.4,0.2,0.6c0,0.1,0,0.3-0.1,0.4c-0.4,2.1,0.9,4.2,3.2,4.2C31.9,67.4,33.3,65.3,32.8,63.2z"/>
	<path class="st12" d="M303.5,76.6c-0.7-2.3-1.8-4.4-2.1-6.8c-0.1-1-1.4-1.8-2.3-1.8c-1.4,0-2.3,1.1-2.4,2.4
		c-0.3,2.5-0.1,5.5,0.7,7.9C298.6,82.2,304.7,80.5,303.5,76.6z"/>
	<path class="st12" d="M299.9,98.6c-0.4-1.7-0.9-3.3-1.8-4.8c-1.4-2.1-4.8-0.8-4.1,1.7c0.3,1.1,0.1,2-0.1,3c-0.4,2,0.9,4,3,4
		C299,102.6,300.3,100.6,299.9,98.6z"/>
	<path class="st12" d="M289.2,81.8c0.3,0.4,0.2,0.2,0.1-0.2c0,0.1,0-0.7,0-0.9c0-3.6-5.6-3.6-5.6,0c0,1.9,0.3,3.5,1.6,5
		c1,1.2,2.9,1,3.9,0C290.3,84.6,290.1,83,289.2,81.8z"/>
</g>
</svg>
